#N canvas 742 166 450 300 12;
#X obj 76 107 netreceive -u -b;
#X msg 76 66 listen 8000;
#X obj 76 142 oscparse;
#X obj 76 179 list trim;
#X obj 76 25 inlet bang;
#X obj 76 214 outlet;
#X text 171 65 Conection to port;
#X text 160 181 Getting buttons;
#X connect 0 0 2 0;
#X connect 1 0 0 0;
#X connect 2 0 3 0;
#X connect 3 0 5 0;
#X connect 4 0 1 0;
