#N canvas 885 41 450 300 12;
#X obj 120 24 inlet;
#X obj 175 24 inlet;
#X obj 120 52 tgl 19 0 empty empty empty 0 -10 0 12 #c6ffc7 #000000 #000000 0 1;
#X floatatom 175 54 5 0 0 0 - - - 0;
#X obj 120 81 t f b;
#X msg 175 80 tempo \$1 permin;
#X obj 120 123 metro 0.25 120 permin;
#X msg 152 151 0;
#X text 180 151 reset;
#X obj 120 183 f;
#X obj 160 184 + 1;
#X obj 120 214 % 16;
#X obj 120 245 outlet;
#X connect 0 0 2 0;
#X connect 1 0 3 0;
#X connect 2 0 4 0;
#X connect 3 0 5 0;
#X connect 4 0 6 0;
#X connect 4 1 7 0;
#X connect 5 0 6 0;
#X connect 6 0 9 0;
#X connect 7 0 9 1;
#X connect 9 0 10 0;
#X connect 9 0 11 0;
#X connect 10 0 9 1;
#X connect 11 0 12 0;
