#N canvas -1 5 628 220 12;
#X obj 285 16 bng 19 250 50 0 empty empty empty 0 -10 0 12 #00ff04 #000000 #000000;
#X obj 180 44 print;
#X obj 285 51 connection;
#X text 364 51 Conection to OSC controller;
#X obj 27 103 Page1OSCcontroller;
#X obj 176 104 Page2OSCcontroller;
#X obj 322 104 Page3OSCcontroller;
#X obj 472 104 Page4OSCcontroller;
#X text 30 125 mainConfiguration;
#X text 516 125 Sounds;
#X text 206 124 Controller;
#X text 348 126 Recordings;
#X connect 0 0 2 0;
#X connect 2 0 1 0;
#X connect 2 0 4 0;
#X connect 2 0 5 0;
#X connect 2 0 6 0;
#X connect 2 0 7 0;
