#N canvas 4 0 1366 677 12;
#X obj 73 355 dac~;
#X obj 57 251 osc~;
#X obj 86 294 *~, f 4;
#X obj 159 222 tgl 19 0 empty empty empty 0 -10 0 12 #fcfcfc #000000 #000000 0 1;
#X obj 159 285 bng 19 250 50 0 empty empty empty 0 -10 0 12 #fcfcfc #000000 #000000;
#X obj 159 255 metro 500;
#X obj 159 326 tabwrite~ Sonido;
#N canvas 0 50 450 250 (subpatch) 0;
#X array Sonido 100 float 3;
#A 0 0 0 0 0 0 0 0 0 0 0 0 0 0 0 0 0 0 0 0 0 0 0 0 0 0 0 0 0 0 0 0 0 0 0 0 0 0 0 0 0 0 0 0 0 0 0 0 0 0 0 0 0 0 0 0 0 0 0 0 0 0 0 0 0 0 0 0 0 0 0 0 0 0 0 0 0 0 0 0 0 0 0 0 0 0 0 0 0 0 0 0 0 0 0 0 0 0 0 0 0;
#X coords 0 1 100 -1 200 140 1;
#X restore 52 429 graph;
#X obj 506 11 bng 19 250 50 0 empty empty empty 0 -10 0 12 #00ff04 #000000 #000000;
#X floatatom 56 172 5 0 0 0 - - - 0;
#X floatatom 108 172 5 0 0 0 - - - 0;
#X floatatom 159 173 5 0 0 0 - - - 0;
#X floatatom 209 173 5 0 0 0 - - - 0;
#X obj 507 109 route slider1;
#X obj 652 110 route slider2;
#X text 167 136 Frequency;
#X text 497 252 Volume;
#X obj 420 37 print;
#X obj 790 109 route slider3;
#X obj 67 101 route slider4;
#X text 52 376 SoundOutput;
#X text 282 327 VisualizationSound;
#X text 244 257 Time(2 Seconds);
#X obj 56 206 *~ 800;
#X obj 322 417 tgl 19 0 empty empty empty 0 -10 0 12 #fcfcfc #000000 #000000 0 1;
#X obj 322 489 bng 19 250 50 0 empty empty empty 0 -10 0 12 #fcfcfc #000000 #000000;
#X obj 322 527 random 8;
#X floatatom 322 558 5 0 0 0 - - - 0;
#X obj 322 595 sel 0 1 2 3 4 5 6 7;
#X obj 322 633 bng 19 250 50 0 empty empty empty 0 -10 0 12 #fcfcfc #000000 #000000;
#X obj 338 633 bng 19 250 50 0 empty empty empty 0 -10 0 12 #fcfcfc #000000 #000000;
#X obj 354 633 bng 19 250 50 0 empty empty empty 0 -10 0 12 #fcfcfc #000000 #000000;
#X obj 370 633 bng 19 250 50 0 empty empty empty 0 -10 0 12 #fcfcfc #000000 #000000;
#X obj 387 633 bng 19 250 50 0 empty empty empty 0 -10 0 12 #fcfcfc #000000 #000000;
#X obj 403 633 bng 19 250 50 0 empty empty empty 0 -10 0 12 #fcfcfc #000000 #000000;
#X obj 419 633 bng 19 250 50 0 empty empty empty 0 -10 0 12 #fcfcfc #000000 #000000;
#X obj 435 633 bng 19 250 50 0 empty empty empty 0 -10 0 12 #fcfcfc #000000 #000000;
#X obj 322 453 metro 900;
#X obj 506 46 connection;
#X text 585 46 Conection to OSC controller;
#X obj 428 352 dac~;
#X obj 428 258 *~, f 4;
#X obj 427 304 clip~ -1 1;
#X obj 429 215 readsf~;
#X floatatom 507 227 5 0 0 0 - - - 0;
#X msg 429 180 open ExtraSounds/electricGuitar.wav;
#X obj 546 151 route toggle2;
#X obj 414 151 route toggle1;
#X obj 677 151 route toggle3;
#X obj 566 379 dac~;
#X obj 566 285 *~, f 4;
#X obj 565 331 clip~ -1 1;
#X obj 567 242 readsf~;
#X floatatom 652 256 5 0 0 0 - - - 0;
#X obj 700 408 dac~;
#X obj 700 314 *~, f 4;
#X obj 699 360 clip~ -1 1;
#X obj 701 271 readsf~;
#X floatatom 790 284 5 0 0 0 - - - 0;
#X msg 567 207 open ExtraSounds/technoSynthesizer.wav;
#X msg 701 236 open ExtraSounds/beatDrum.wav;
#X text 645 279 Volume;
#X text 785 307 Volume;
#X msg 999 160 1 5;
#X obj 1049 161 delay 5;
#X obj 1049 195 bng 19 250 50 0 empty empty empty 0 -10 0 12 #fcfcfc #000000 #000000;
#X msg 1049 231 0.5 100;
#X obj 1121 232 delay 100;
#X obj 1121 267 bng 19 250 50 0 empty empty empty 0 -10 0 12 #fcfcfc #000000 #000000;
#X msg 1121 295 0 150;
#X obj 999 322 line;
#X floatatom 999 351 5 0 0 0 - - - 0;
#X obj 1003 382 *~, f 4;
#X obj 921 228 noise~;
#X obj 922 267 *~ 0.5;
#X obj 1002 412 *~ -1;
#X obj 1003 447 dac~;
#X obj 921 300 hip~ 4000;
#X obj 938 106 route button1;
#X obj 802 356 loopSound;
#X obj 628 306 loopSound;
#X obj 493 275 loopSound;
#X connect 1 0 2 0;
#X connect 2 0 0 0;
#X connect 2 0 6 0;
#X connect 2 0 0 1;
#X connect 3 0 5 0;
#X connect 4 0 6 0;
#X connect 5 0 4 0;
#X connect 8 0 38 0;
#X connect 9 0 23 0;
#X connect 10 0 2 1;
#X connect 13 0 44 0;
#X connect 14 0 53 0;
#X connect 18 0 58 0;
#X connect 23 0 1 0;
#X connect 24 0 37 0;
#X connect 25 0 26 0;
#X connect 26 0 27 0;
#X connect 27 0 28 0;
#X connect 28 0 29 0;
#X connect 28 1 30 0;
#X connect 28 2 31 0;
#X connect 28 3 32 0;
#X connect 28 4 33 0;
#X connect 28 5 34 0;
#X connect 28 6 35 0;
#X connect 28 7 36 0;
#X connect 37 0 25 0;
#X connect 38 0 17 0;
#X connect 38 0 13 0;
#X connect 38 0 18 0;
#X connect 38 0 14 0;
#X connect 38 0 19 0;
#X connect 38 0 46 0;
#X connect 38 0 47 0;
#X connect 38 0 48 0;
#X connect 38 0 78 0;
#X connect 41 0 42 0;
#X connect 42 0 40 0;
#X connect 42 0 40 1;
#X connect 43 0 41 0;
#X connect 43 1 81 0;
#X connect 44 0 41 1;
#X connect 45 0 43 0;
#X connect 46 0 59 0;
#X connect 46 0 52 0;
#X connect 47 0 45 0;
#X connect 47 0 43 0;
#X connect 48 0 60 0;
#X connect 48 0 57 0;
#X connect 50 0 51 0;
#X connect 51 0 49 0;
#X connect 51 0 49 1;
#X connect 52 0 50 0;
#X connect 52 1 80 0;
#X connect 53 0 50 1;
#X connect 55 0 56 0;
#X connect 56 0 54 0;
#X connect 56 0 54 1;
#X connect 57 0 55 0;
#X connect 57 1 79 0;
#X connect 58 0 55 1;
#X connect 59 0 52 0;
#X connect 60 0 57 0;
#X connect 63 0 70 0;
#X connect 64 0 65 0;
#X connect 65 0 66 0;
#X connect 65 0 67 0;
#X connect 66 0 70 0;
#X connect 67 0 68 0;
#X connect 68 0 69 0;
#X connect 69 0 70 0;
#X connect 70 0 71 0;
#X connect 71 0 72 1;
#X connect 72 0 75 0;
#X connect 73 0 74 0;
#X connect 74 0 77 0;
#X connect 75 0 76 0;
#X connect 75 0 76 1;
#X connect 77 0 72 0;
#X connect 78 0 63 0;
#X connect 78 0 64 0;
#X connect 79 0 60 0;
#X connect 79 0 57 0;
#X connect 80 0 59 0;
#X connect 80 0 52 0;
#X connect 81 0 45 0;
#X connect 81 0 43 0;
