#N canvas 0 5 733 220 12;
#X obj 282 22 bng 19 250 50 0 empty empty empty 0 -10 0 12 #00ff04 #000000 #000000;
#X obj 179 47 print;
#X text 389 52 Conection to OSC controller;
#X text 30 125 mainConfiguration;
#X text 573 128 Sounds;
#X text 220 127 Controller;
#X text 389 128 Recordings;
#N canvas 617 187 450 300 connection 0;
#X obj 76 107 netreceive -u -b;
#X msg 76 66 listen 8000;
#X obj 76 142 oscparse;
#X obj 76 179 list trim;
#X obj 76 25 inlet bang;
#X obj 76 214 outlet;
#X text 171 65 Conection to port;
#X text 160 181 Getting buttons;
#X connect 0 0 2 0;
#X connect 1 0 0 0;
#X connect 2 0 3 0;
#X connect 3 0 5 0;
#X connect 4 0 1 0;
#X restore 282 53 pd connection;
#N canvas -22 -15 1366 677 Page1OSCcontroller 0;
#X obj 145 96 route slider1;
#X obj 292 95 route slider2;
#X obj 444 99 route slider3;
#X obj 588 99 route slider4;
#X obj 1043 104 route toggle2;
#X obj 735 97 route toggle1;
#X obj 1178 101 route toggle3;
#X obj 144 226 route button1;
#X obj 288 224 route button2;
#X obj 427 223 route button3;
#X obj 667 17 inlet OSC;
#X floatatom 145 134 5 0 0 0 - - - 0;
#X text 170 117 Volume;
#X floatatom 292 131 5 0 0 0 - - - 0;
#X floatatom 444 130 5 0 0 0 - - - 0;
#X floatatom 588 132 5 0 0 0 - - - 0;
#X obj 144 256 bng 19 250 50 0 empty empty empty 0 -10 0 12 #9c00ff #000000 #000000;
#X obj 288 255 bng 19 250 50 0 empty empty empty 0 -10 0 12 #9c00ff #000000 #000000;
#X obj 427 254 bng 19 250 50 0 empty empty empty 0 -10 0 12 #9c00ff #000000 #000000;
#X obj 735 205 hradio 19 1 0 16 empty empty empty 0 -10 0 12 #00faff #000000 #000000 0;
#X obj 735 137 tgl 19 0 empty empty empty 0 -10 0 12 #c6ffc7 #000000 #000000 0 1;
#X floatatom 781 137 5 0 0 0 - - - 0;
#X msg 144 288 0 2 3 4 5 6 0 1 2 3 4 5 6 0 1 2;
#X obj 144 320 array set \$0-numbers;
#X obj 735 257 array get \$0-numbers;
#X text 619 119 tempo;
#X msg 803 231 1;
#X floatatom 735 283 5 0 0 0 - - - 0;
#N canvas 0 50 450 250 (subpatch) 0;
#X array \$0-numbers 16 float 3;
#A 0 0 2 3 4 5 6 0 1 2 3 4 5 6 0 1 2;
#X coords 0 10 16 0 200 140 1 0 0;
#X restore 1006 472 graph;
#X obj 735 313 + 0.5;
#X obj 735 340 int;
#X floatatom 735 370 5 0 0 0 - - - 0;
#X obj 735 398 select 0 1 2 3 4 5 6;
#X obj 774 501 +~;
#X obj 775 531 dac~;
#X obj 288 380 array set \$0-numbers;
#X obj 428 455 array set \$0-numbers;
#X obj 145 162 s volKick;
#X obj 787 369 r volKick;
#X obj 292 160 s volSnare;
#X obj 444 160 s volHats;
#X obj 866 369 r volSnare;
#X obj 952 370 r volHats;
#X msg 288 348 4 10 2 10 5 10 2 2 2 10 4 10 5 0 2 2;
#X msg 428 423 4 2 2 2 5 2 2 2 4 2 2 2 5 2 4 2;
#X text 320 117 Volume;
#X text 471 117 Volume;
#X obj 1043 292 *~;
#X obj 1043 138 bng 19 250 50 0 empty empty empty 0 -10 0 12 #9c00ff #000000 #000000;
#X obj 1043 326 dac~;
#X obj 1119 164 tgl 19 0 empty empty empty 0 -10 0 12 #c6ffc7 #000000 #000000 0 1;
#X obj 1119 195 sel 0;
#X msg 1119 229 0;
#X obj 1043 262 osc~;
#X msg 1151 229 0.02;
#X obj 1195 289 *~;
#X obj 1195 135 bng 19 250 50 0 empty empty empty 0 -10 0 12 #9c00ff #000000 #000000;
#X obj 1195 323 dac~;
#X obj 1271 161 tgl 19 0 empty empty empty 0 -10 0 12 #c6ffc7 #000000 #000000 0 1;
#X obj 1271 192 sel 0;
#X msg 1271 226 0;
#X obj 1195 259 osc~;
#X msg 1303 227 0.02;
#N canvas 104 104 450 300 kick 0;
#X obj 138 24 inlet;
#X obj 215 24 inlet;
#X obj 138 54 bng 19 250 50 0 empty empty empty 0 -10 0 12 #9c00ff #000000 #000000;
#X obj 198 89 f;
#X msg 138 114 150 \, 50 70 0;
#X obj 138 150 vline~;
#X msg 197 147 \$1 1 0 \, 0 100 1;
#X obj 197 177 vline~;
#X obj 138 219 *~;
#X obj 137 253 outlet~;
#X obj 139 184 osc~;
#X connect 0 0 2 0;
#X connect 1 0 3 1;
#X connect 2 0 3 0;
#X connect 2 0 4 0;
#X connect 3 0 6 0;
#X connect 4 0 5 0;
#X connect 5 0 10 0;
#X connect 6 0 7 0;
#X connect 7 0 8 1;
#X connect 8 0 9 0;
#X connect 10 0 8 0;
#X restore 710 457 pd kick;
#N canvas 130 130 450 300 snare 0;
#X obj 182 21 inlet;
#X obj 238 20 inlet;
#X obj 204 79 f;
#X obj 57 48 noise~;
#X obj 57 79 lop~ 3000;
#X obj 56 110 hip~ 1000;
#X msg 204 107 \$1 1 0 \, 0 150 1;
#X obj 204 137 vline~;
#X obj 205 167 *~;
#X obj 124 146 osc~ 180;
#X obj 124 173 *~ 0.5;
#X obj 124 213 *~;
#X obj 125 243 outlet~;
#X connect 0 0 2 0;
#X connect 1 0 2 1;
#X connect 2 0 6 0;
#X connect 3 0 4 0;
#X connect 4 0 5 0;
#X connect 5 0 11 0;
#X connect 6 0 7 0;
#X connect 7 0 8 0;
#X connect 7 0 8 1;
#X connect 8 0 11 1;
#X connect 9 0 10 0;
#X connect 10 0 11 0;
#X connect 11 0 12 0;
#X restore 774 456 pd snare;
#N canvas 156 156 454 426 hats 0;
#X obj 240 17 inlet;
#X obj 297 17 inlet;
#X obj 240 49 bng 19 250 50 0 empty empty empty 0 -10 0 12 #9c00ff #000000 #000000;
#X obj 240 79 f;
#X obj 240 111 t f b;
#X obj 272 143 random 10;
#X obj 272 173 / 20;
#X obj 272 203 + 0.7;
#X obj 148 247 noise~;
#X obj 149 278 hip~ 20000;
#X obj 148 308 hip~ 10000;
#X obj 188 362 *~;
#X obj 188 395 outlet~;
#X msg 240 277 \$1 \, 0 40 1;
#X obj 240 306 vline~;
#X obj 240 249 *;
#X connect 0 0 2 0;
#X connect 1 0 3 1;
#X connect 2 0 3 0;
#X connect 3 0 4 0;
#X connect 4 0 15 0;
#X connect 4 1 5 0;
#X connect 5 0 6 0;
#X connect 6 0 7 0;
#X connect 7 0 15 1;
#X connect 8 0 9 0;
#X connect 9 0 10 0;
#X connect 10 0 11 0;
#X connect 11 0 12 0;
#X connect 13 0 14 0;
#X connect 14 0 11 1;
#X connect 15 0 13 0;
#X restore 852 457 pd hats;
#X msg 1043 170 900;
#X msg 1195 167 1200;
#N canvas 26 26 450 300 counter 0;
#X obj 120 24 inlet;
#X obj 175 24 inlet;
#X obj 120 52 tgl 19 0 empty empty empty 0 -10 0 12 #c6ffc7 #000000 #000000 0 1;
#X floatatom 175 54 5 0 0 0 - - - 0;
#X obj 120 81 t f b;
#X msg 175 80 tempo \$1 permin;
#X obj 120 123 metro 0.25 120 permin;
#X msg 152 151 0;
#X text 180 151 reset;
#X obj 120 183 f;
#X obj 160 184 + 1;
#X obj 120 214 % 16;
#X obj 120 245 outlet;
#X connect 0 0 2 0;
#X connect 1 0 3 0;
#X connect 2 0 4 0;
#X connect 3 0 5 0;
#X connect 4 0 6 0;
#X connect 4 1 7 0;
#X connect 5 0 6 0;
#X connect 6 0 9 0;
#X connect 7 0 9 1;
#X connect 9 0 10 0;
#X connect 9 0 11 0;
#X connect 10 0 9 1;
#X connect 11 0 12 0;
#X restore 735 173 pd counter;
#X connect 0 0 11 0;
#X connect 1 0 13 0;
#X connect 2 0 14 0;
#X connect 3 0 15 0;
#X connect 4 0 48 0;
#X connect 5 0 20 0;
#X connect 6 0 56 0;
#X connect 7 0 16 0;
#X connect 8 0 17 0;
#X connect 9 0 18 0;
#X connect 10 0 1 0;
#X connect 10 0 0 0;
#X connect 10 0 2 0;
#X connect 10 0 5 0;
#X connect 10 0 4 0;
#X connect 10 0 6 0;
#X connect 10 0 3 0;
#X connect 10 0 7 0;
#X connect 10 0 8 0;
#X connect 10 0 9 0;
#X connect 11 0 37 0;
#X connect 13 0 39 0;
#X connect 14 0 40 0;
#X connect 15 0 68 1;
#X connect 16 0 22 0;
#X connect 17 0 43 0;
#X connect 18 0 44 0;
#X connect 19 0 24 0;
#X connect 20 0 68 0;
#X connect 22 0 23 0;
#X connect 24 0 27 0;
#X connect 26 0 24 1;
#X connect 27 0 29 0;
#X connect 29 0 30 0;
#X connect 30 0 31 0;
#X connect 31 0 32 0;
#X connect 32 0 63 0;
#X connect 32 1 64 0;
#X connect 32 2 65 0;
#X connect 32 3 63 0;
#X connect 32 3 64 0;
#X connect 32 4 63 0;
#X connect 32 4 65 0;
#X connect 32 5 63 0;
#X connect 32 5 64 0;
#X connect 32 5 65 0;
#X connect 32 6 63 0;
#X connect 32 6 64 0;
#X connect 32 6 65 0;
#X connect 33 0 34 0;
#X connect 33 0 34 1;
#X connect 38 0 63 1;
#X connect 41 0 64 1;
#X connect 42 0 65 1;
#X connect 43 0 35 0;
#X connect 44 0 36 0;
#X connect 47 0 49 0;
#X connect 47 0 49 1;
#X connect 48 0 50 0;
#X connect 48 0 66 0;
#X connect 50 0 51 0;
#X connect 51 0 52 0;
#X connect 51 1 54 0;
#X connect 52 0 47 1;
#X connect 53 0 47 0;
#X connect 54 0 47 1;
#X connect 55 0 57 0;
#X connect 55 0 57 1;
#X connect 56 0 58 0;
#X connect 56 0 67 0;
#X connect 58 0 59 0;
#X connect 59 0 60 0;
#X connect 59 1 62 0;
#X connect 60 0 55 1;
#X connect 61 0 55 0;
#X connect 62 0 55 1;
#X connect 63 0 33 0;
#X connect 64 0 33 0;
#X connect 65 0 33 0;
#X connect 66 0 53 0;
#X connect 67 0 61 0;
#X connect 68 0 19 0;
#X restore 19 106 pd Page1OSCcontroller;
#N canvas 41 109 407 200 Page2OSCcontroller 0;
#X obj 117 31 inlet OSC;
#X obj 176 87 route slider2Dy;
#X obj 43 87 route slider2Dx;
#X floatatom 176 112 5 0 0 0 - - - 0;
#X floatatom 43 111 5 0 0 0 - - - 0;
#X text 86 110 Volume;
#X text 218 108 Frequency;
#X obj 43 134 s volVoice;
#X obj 176 137 s freqVoice;
#X connect 0 0 2 0;
#X connect 0 0 1 0;
#X connect 1 0 3 0;
#X connect 2 0 4 0;
#X connect 3 0 8 0;
#X connect 4 0 7 0;
#X restore 183 106 pd Page2OSCcontroller;
#N canvas 0 0 1366 677 Page3OSCcontroller 0;
#X obj 611 42 inlet OSC;
#X obj 252 112 route gridToggle1;
#X obj 439 112 route gridToggle2;
#X obj 829 117 route gridToggle3;
#X obj 1039 115 route gridToggle4;
#X msg 298 238 stop;
#X obj 252 296 writesf~;
#X obj 454 206 readsf~;
#X obj 455 242 dac~;
#X msg 454 174 open ExtraSounds/MyVoice.wav;
#X obj 439 144 tgl 19 0 empty empty empty 0 -10 0 12 #00ff04 #000000 #000000 0 1;
#X msg 252 264 open ExtraSounds/MyVoice.wav \, start;
#X obj 252 206 bng 19 250 50 0 empty empty empty 0 -10 0 12 #ff0400 #000000 #000000;
#X obj 298 206 bng 19 250 50 0 empty empty empty 0 -10 0 12 #0400ff #000000 #000000;
#X obj 252 173 sel 1;
#X obj 252 142 tgl 19 0 empty empty empty 0 -10 0 12 #00ff04 #000000 #000000 0 1;
#X msg 875 243 stop;
#X obj 829 299 writesf~;
#X obj 829 211 bng 19 250 50 0 empty empty empty 0 -10 0 12 #ff0400 #000000 #000000;
#X obj 875 211 bng 19 250 50 0 empty empty empty 0 -10 0 12 #0400ff #000000 #000000;
#X obj 829 178 sel 1;
#X obj 829 147 tgl 19 0 empty empty empty 0 -10 0 12 #00ff04 #000000 #000000 0 1;
#X msg 829 268 open ExtraSounds/MyVoice2.wav \, start;
#X obj 1054 207 readsf~;
#X obj 1055 243 dac~;
#X obj 1039 145 tgl 19 0 empty empty empty 0 -10 0 12 #00ff04 #000000 #000000 0 1;
#X msg 1054 175 open ExtraSounds/MyVoice2.wav;
#X obj 838 366 route gridToggle7;
#X obj 1022 366 route gridToggle8;
#X obj 249 402 route gridToggle5;
#X obj 437 404 route gridToggle6;
#X msg 295 526 stop;
#X obj 249 584 writesf~;
#X obj 249 494 bng 19 250 50 0 empty empty empty 0 -10 0 12 #ff0400 #000000 #000000;
#X obj 295 494 bng 19 250 50 0 empty empty empty 0 -10 0 12 #0400ff #000000 #000000;
#X obj 249 461 sel 1;
#X obj 249 430 tgl 19 0 empty empty empty 0 -10 0 12 #00ff04 #000000 #000000 0 1;
#X msg 249 552 open ExtraSounds/MyVoice3.wav \, start;
#X obj 452 492 readsf~;
#X obj 453 528 dac~;
#X obj 437 430 tgl 19 0 empty empty empty 0 -10 0 12 #00ff04 #000000 #000000 0 1;
#X msg 452 459 open ExtraSounds/MyVoice3.wav;
#X msg 884 492 stop;
#X obj 838 550 writesf~;
#X obj 838 460 bng 19 250 50 0 empty empty empty 0 -10 0 12 #ff0400 #000000 #000000;
#X obj 884 460 bng 19 250 50 0 empty empty empty 0 -10 0 12 #0400ff #000000 #000000;
#X obj 838 427 sel 1;
#X obj 838 396 tgl 19 0 empty empty empty 0 -10 0 12 #00ff04 #000000 #000000 0 1;
#X obj 1037 455 readsf~;
#X obj 1038 491 dac~;
#X obj 1022 393 tgl 19 0 empty empty empty 0 -10 0 12 #00ff04 #000000 #000000 0 1;
#X msg 838 518 open ExtraSounds/MyVoice4.wav \, start;
#X msg 1037 422 open ExtraSounds/MyVoice4.wav;
#N canvas 104 104 895 300 loopSound 0;
#X text 188 213 SendSoundToRepeat;
#X text 529 190 RecieveBangForRepeat;
#X obj 42 130 spigot;
#X obj 42 40 inlet;
#X obj 42 162 s loopPlay;
#X obj 81 96 tgl 19 0 empty empty empty 0 -10 0 12 #00faff #000000 #000000 0 1;
#X obj 81 65 inlet;
#X msg 432 112 start;
#X obj 432 160 outlet;
#X obj 126 130 spigot;
#X obj 126 40 inlet;
#X obj 165 96 tgl 19 0 empty empty empty 0 -10 0 12 #00faff #000000 #000000 0 1;
#X obj 165 65 inlet;
#X obj 214 130 spigot;
#X obj 214 40 inlet;
#X obj 253 96 tgl 19 0 empty empty empty 0 -10 0 12 #00faff #000000 #000000 0 1;
#X obj 253 65 inlet;
#X obj 126 162 s loopPlay2;
#X obj 214 162 s loopPlay3;
#X msg 518 110 start;
#X obj 518 158 outlet;
#X msg 615 110 start;
#X obj 615 158 outlet;
#X obj 518 68 r loopPlay2;
#X obj 615 68 r loopPlay3;
#X obj 432 70 r loopPlay;
#X obj 315 130 spigot;
#X obj 315 40 inlet;
#X obj 354 96 tgl 19 0 empty empty empty 0 -10 0 12 #00faff #000000 #000000 0 1;
#X obj 354 65 inlet;
#X obj 315 162 s loopPlay4;
#X msg 714 109 start;
#X obj 714 157 outlet;
#X obj 714 67 r loopPlay4;
#X text 35 182 Sound1Voice;
#X text 124 185 Sound2Voice;
#X text 218 185 Sound3OSC;
#X text 319 185 Sound4OSC;
#X connect 2 0 4 0;
#X connect 3 0 2 0;
#X connect 5 0 2 1;
#X connect 6 0 5 0;
#X connect 7 0 8 0;
#X connect 9 0 17 0;
#X connect 10 0 9 0;
#X connect 11 0 9 1;
#X connect 12 0 11 0;
#X connect 13 0 18 0;
#X connect 14 0 13 0;
#X connect 15 0 13 1;
#X connect 16 0 15 0;
#X connect 19 0 20 0;
#X connect 21 0 22 0;
#X connect 23 0 19 0;
#X connect 24 0 21 0;
#X connect 25 0 7 0;
#X connect 26 0 30 0;
#X connect 27 0 26 0;
#X connect 28 0 26 1;
#X connect 29 0 28 0;
#X connect 31 0 32 0;
#X connect 33 0 31 0;
#X restore 610 328 pd loopSound;
#N canvas 622 66 433 300 voiceTransformation 0;
#X obj 103 61 adc~;
#X obj 103 117 *~;
#X obj 136 116 osc~;
#X obj 119 153 *~;
#X obj 120 228 dac~;
#X obj 121 79 r volVoice;
#X obj 136 47 r freqVoice;
#X obj 165 228 outlet~;
#X obj 120 181 *~ 0.8;
#X connect 0 0 1 0;
#X connect 1 0 3 0;
#X connect 2 0 3 1;
#X connect 3 0 8 0;
#X connect 5 0 1 1;
#X connect 6 0 2 0;
#X connect 8 0 4 0;
#X connect 8 0 4 1;
#X connect 8 0 7 0;
#X restore 57 217 pd voiceTransformation;
#X connect 0 0 1 0;
#X connect 0 0 2 0;
#X connect 0 0 3 0;
#X connect 0 0 4 0;
#X connect 0 0 27 0;
#X connect 0 0 28 0;
#X connect 0 0 29 0;
#X connect 0 0 30 0;
#X connect 1 0 15 0;
#X connect 2 0 10 0;
#X connect 3 0 21 0;
#X connect 4 0 25 0;
#X connect 5 0 6 0;
#X connect 7 0 8 0;
#X connect 7 0 8 1;
#X connect 7 1 53 0;
#X connect 9 0 7 0;
#X connect 10 0 9 0;
#X connect 10 0 7 0;
#X connect 10 0 53 1;
#X connect 11 0 6 0;
#X connect 12 0 11 0;
#X connect 13 0 5 0;
#X connect 14 0 12 0;
#X connect 14 1 13 0;
#X connect 15 0 14 0;
#X connect 16 0 17 0;
#X connect 18 0 22 0;
#X connect 19 0 16 0;
#X connect 20 0 18 0;
#X connect 20 1 19 0;
#X connect 21 0 20 0;
#X connect 22 0 17 0;
#X connect 23 0 24 0;
#X connect 23 0 24 1;
#X connect 23 1 53 2;
#X connect 25 0 26 0;
#X connect 25 0 23 0;
#X connect 25 0 53 3;
#X connect 26 0 23 0;
#X connect 27 0 47 0;
#X connect 28 0 50 0;
#X connect 29 0 36 0;
#X connect 30 0 40 0;
#X connect 31 0 32 0;
#X connect 33 0 37 0;
#X connect 34 0 31 0;
#X connect 35 0 33 0;
#X connect 35 1 34 0;
#X connect 36 0 35 0;
#X connect 37 0 32 0;
#X connect 38 0 39 0;
#X connect 38 0 39 1;
#X connect 38 1 53 6;
#X connect 40 0 41 0;
#X connect 40 0 38 0;
#X connect 40 0 53 7;
#X connect 41 0 38 0;
#X connect 42 0 43 0;
#X connect 44 0 51 0;
#X connect 45 0 42 0;
#X connect 46 0 44 0;
#X connect 46 1 45 0;
#X connect 47 0 46 0;
#X connect 48 0 49 0;
#X connect 48 0 49 1;
#X connect 48 1 53 4;
#X connect 50 0 52 0;
#X connect 50 0 48 0;
#X connect 50 0 53 5;
#X connect 51 0 43 0;
#X connect 52 0 48 0;
#X connect 53 0 9 0;
#X connect 53 0 7 0;
#X connect 53 1 26 0;
#X connect 53 1 23 0;
#X connect 53 2 52 0;
#X connect 53 2 48 0;
#X connect 53 3 41 0;
#X connect 53 3 38 0;
#X connect 54 0 6 0;
#X connect 54 0 32 0;
#X connect 54 0 17 0;
#X connect 54 0 43 0;
#X restore 350 107 pd Page3OSCcontroller;
#N canvas 0 0 1366 677 Page4OSCcontroller 0;
#X msg 242 723 1 5;
#X obj 292 724 delay 5;
#X obj 292 758 bng 19 250 50 0 empty empty empty 0 -10 0 12 #9c00ff #000000 #000000;
#X msg 292 794 0.5 100;
#X obj 364 795 delay 100;
#X obj 364 830 bng 19 250 50 0 empty empty empty 0 -10 0 12 #9c00ff #000000 #000000;
#X msg 364 858 0 150;
#X obj 242 885 line;
#X floatatom 242 914 5 0 0 0 - - - 0;
#X obj 246 945 *~, f 4;
#X obj 164 791 noise~;
#X obj 245 975 *~ -1;
#X obj 245 1014 dac~;
#X obj 164 863 hip~ 4000;
#X obj 326 69 route gridButton1;
#X obj 242 692 bng 19 250 50 0 empty empty empty 0 -10 0 12 #9c00ff #000000 #000000;
#X obj 644 18 inlet OSC;
#X obj 474 70 route gridButton2;
#X obj 652 70 route gridButton3;
#X obj 859 67 route gridButton4;
#X text 362 91 Sound1;
#X text 512 90 Sound2;
#X text 692 90 Sound3;
#X text 899 86 Sound4;
#X obj 242 660 route gridButton5;
#X obj 269 182 noise~;
#X obj 326 183 osc~;
#X obj 307 224 *~;
#X obj 307 291 dac~;
#X msg 326 153 0.5;
#X obj 307 255 *~;
#X obj 474 185 bng 19 250 50 0 empty empty empty 0 -10 0 12 #9c00ff #000000 #000000;
#X obj 519 218 + 1;
#X obj 474 219 f;
#X obj 474 291 sel 0 1;
#X obj 474 252 mod 3;
#X floatatom 474 358 5 0 0 0 - - - 0;
#X obj 474 391 osc~;
#X obj 475 427 *~, f 4;
#X obj 475 463 dac~;
#X obj 474 155 metro 200;
#X obj 474 127 tgl 19 0 empty empty empty 0 -10 0 12 #c6ffc7 #000000 #000000 0 1;
#X msg 520 324 150;
#X msg 497 324 100;
#X msg 474 324 75;
#X obj 652 181 bng 19 250 50 0 empty empty empty 0 -10 0 12 #9c00ff #000000 #000000;
#X obj 697 214 + 1;
#X obj 652 215 f;
#X obj 652 248 mod 3;
#X floatatom 652 354 5 0 0 0 - - - 0;
#X obj 652 387 osc~;
#X obj 652 456 dac~;
#X obj 652 121 tgl 19 0 empty empty empty 0 -10 0 12 #c6ffc7 #000000 #000000 0 1;
#X msg 652 320 900;
#X msg 675 320 850;
#X msg 698 320 800;
#X obj 652 287 sel 0 1 2;
#X msg 721 320 750;
#X obj 653 423 *~;
#X obj 652 151 metro 50;
#X obj 326 123 tgl 19 0 empty empty empty 0 -10 0 12 #c6ffc7 #000000 #000000 0 1;
#X obj 326 96 bng 19 250 50 0 empty empty empty 0 -10 0 12 #9c00ff #000000 #000000;
#X obj 474 98 bng 19 250 50 0 empty empty empty 0 -10 0 12 #9c00ff #000000 #000000;
#X obj 652 97 bng 19 250 50 0 empty empty empty 0 -10 0 12 #9c00ff #000000 #000000;
#X obj 165 830 *~ 0.15;
#X obj 376 183 sel 0;
#X msg 376 217 0;
#X obj 560 291 sel 0;
#X msg 560 325 0;
#X obj 765 286 sel 0;
#X msg 765 320 0;
#X obj 859 180 bng 19 250 50 0 empty empty empty 0 -10 0 12 #9c00ff #000000 #000000;
#X obj 859 120 tgl 19 0 empty empty empty 0 -10 0 12 #c6ffc7 #000000 #000000 0 1;
#X obj 859 96 bng 19 250 50 0 empty empty empty 0 -10 0 12 #9c00ff #000000 #000000;
#X obj 859 150 metro 180;
#X obj 904 211 + 1;
#X obj 859 212 f;
#X floatatom 859 351 5 0 0 0 - - - 0;
#X obj 1038 283 sel 0;
#X msg 1038 317 0;
#X msg 859 380 \$1 20;
#X obj 859 413 line 0 3;
#X obj 859 444 mtof;
#X obj 858 541 samphold~;
#X obj 949 541 samphold~;
#X obj 857 581 dac~;
#X obj 1114 226 random 98;
#X obj 1194 225 random 98;
#X obj 1114 257 + 30;
#X obj 1194 256 + 30;
#X floatatom 1114 285 5 0 0 0 - - - 0;
#X floatatom 1194 287 5 0 0 0 - - - 0;
#X msg 1114 317 \$1 180;
#X msg 1194 316 \$1 50;
#X obj 1114 349 line 0 3;
#X obj 1194 350 line 0 3;
#X obj 1114 379 mtof;
#X obj 1194 381 mtof;
#X obj 1114 409 phasor~;
#X obj 1194 408 phasor~;
#X obj 858 507 *~;
#X obj 859 473 osc~ 200;
#X msg 859 317 100;
#X msg 882 317 220;
#X msg 905 317 40;
#X msg 928 317 450;
#X msg 951 317 500;
#X msg 979 317 50;
#X msg 996 317 360;
#X msg 1070 317 0.05;
#X msg 797 320 0.05;
#X msg 408 217 0.05;
#X obj 546 659 route gridButton6;
#X obj 838 657 route gridButton7;
#X obj 1122 655 route gridButton8;
#X obj 49 1279 route gridButton9;
#X obj 184 1279 route gridButton10;
#X obj 324 1280 route gridButton11;
#X obj 466 1280 route gridButton12;
#X obj 596 718 delay 5;
#X obj 596 752 bng 19 250 50 0 empty empty empty 0 -10 0 12 #9c00ff #000000 #000000;
#X msg 596 788 0.5 100;
#X obj 668 824 bng 19 250 50 0 empty empty empty 0 -10 0 12 #9c00ff #000000 #000000;
#X obj 546 879 line;
#X floatatom 546 908 5 0 0 0 - - - 0;
#X obj 550 939 *~, f 4;
#X obj 468 785 noise~;
#X obj 549 969 *~ -1;
#X obj 546 686 bng 19 250 50 0 empty empty empty 0 -10 0 12 #9c00ff #000000 #000000;
#X obj 469 824 *~ 0.15;
#X msg 546 717 1 30;
#X msg 668 852 0 300;
#X obj 888 721 delay 5;
#X obj 888 755 bng 19 250 50 0 empty empty empty 0 -10 0 12 #9c00ff #000000 #000000;
#X msg 888 791 0.5 100;
#X obj 960 792 delay 100;
#X obj 960 827 bng 19 250 50 0 empty empty empty 0 -10 0 12 #9c00ff #000000 #000000;
#X obj 838 882 line;
#X floatatom 838 911 5 0 0 0 - - - 0;
#X obj 842 942 *~, f 4;
#X obj 760 788 noise~;
#X obj 841 972 *~ -1;
#X obj 838 689 bng 19 250 50 0 empty empty empty 0 -10 0 12 #9c00ff #000000 #000000;
#X obj 761 827 *~ 0.15;
#X obj 1172 717 delay 5;
#X obj 1172 751 bng 19 250 50 0 empty empty empty 0 -10 0 12 #9c00ff #000000 #000000;
#X obj 1244 788 delay 100;
#X obj 1244 823 bng 19 250 50 0 empty empty empty 0 -10 0 12 #9c00ff #000000 #000000;
#X obj 1122 878 line;
#X floatatom 1122 907 5 0 0 0 - - - 0;
#X obj 1126 938 *~, f 4;
#X obj 1044 784 noise~;
#X obj 1125 968 *~ -1;
#X obj 1122 685 bng 19 250 50 0 empty empty empty 0 -10 0 12 #9c00ff #000000 #000000;
#X obj 1045 823 *~ 0.15;
#X msg 838 720 1 5;
#X msg 960 855 0 150;
#X obj 760 860 hip~ 200;
#X obj 468 857 hip~ 6000;
#X msg 1122 716 1 100;
#X msg 1172 787 0.5 250;
#X msg 1244 851 0 450;
#X obj 1044 856 hip~ 12000;
#X obj 668 789 delay 200;
#X obj 859 245 mod 6;
#X obj 859 284 sel 0 1 2 4 5 7;
#X obj 550 1009 dac~;
#X obj 841 1007 dac~;
#X obj 1125 1007 dac~;
#X obj 33 108 metro 100;
#X obj 33 79 tgl 19 0 empty empty empty 0 -10 0 12 #606060 #000000 #000000 0 1;
#X obj 181 291 tabwrite~ music1;
#N canvas 0 50 450 250 (subpatch) 0;
#X array music1 50 float 3;
#A 0 0 0 0 0 0 0 0 0 0 0 0 0 0 0 0 0 0 0 0 0 0 0 0 0 0 0 0 0 0 0 0 0 0 0 0 0 0 0 0 0 0 0 0 0 0 0 0 0 0 0;
#X coords 0 1 50 -1 200 140 1;
#X restore 55 494 graph;
#X obj 352 463 tabwrite~ music2;
#N canvas 0 50 450 250 (subpatch) 0;
#X array music2 50 float 3;
#A 0 0 0 0 0 0 0 0 0 0 0 0 0 0 0 0 0 0 0 0 0 0 0 0 0 0 0 0 0 0 0 0 0 0 0 0 0 0 0 0 0 0 0 0 0 0 0 0 0 0 0;
#X coords 0 1 50 -1 200 140 1;
#X restore 298 497 graph;
#X obj 531 457 tabwrite~ music3;
#N canvas 0 50 450 250 (subpatch) 0;
#X array music3 50 float 3;
#A 0 0 0 0 0 0 0 0 0 0 0 0 0 0 0 0 0 0 0 0 0 0 0 0 0 0 0 0 0 0 0 0 0 0 0 0 0 0 0 0 0 0 0 0 0 0 0 0 0 0 0;
#X coords 0 1 50 -1 200 140 1;
#X restore 527 497 graph;
#X obj 33 140 s metro;
#X text 67 79 graphicDisplay;
#X obj 181 262 r metro;
#X obj 352 431 r metro;
#X obj 531 427 r metro;
#X obj 737 545 r metro;
#X obj 737 581 tabwrite~ music4;
#N canvas 0 50 450 250 (subpatch) 0;
#X array music4 50 float 3;
#A 0 0 0 0 0 0 0 0 0 0 0 0 0 0 0 0 0 0 0 0 0 0 0 0 0 0 0 0 0 0 0 0 0 0 0 0 0 0 0 0 0 0 0 0 0 0 0 0 0 0 0;
#X coords 0 1 50 -1 200 140 1;
#X restore 1076 497 graph;
#X obj 422 1119 r metro;
#X obj 422 1155 tabwrite~ sound;
#N canvas 0 50 450 250 (subpatch) 0;
#X array sound 50 float 3;
#A 0 0 0 0 0 0 0 0 0 0 0 0 0 0 0 0 0 0 0 0 0 0 0 0 0 0 0 0 0 0 0 0 0 0 0 0 0 0 0 0 0 0 0 0 0 0 0 0 0 0 0;
#X coords 0 1 50 -1 200 140 1;
#X restore 567 1083 graph;
#X obj 478 1931 r metro;
#X obj 478 1965 tabwrite~ soundv2;
#N canvas 0 50 450 250 (subpatch) 0;
#X array soundv2 50 float 3;
#A 0 0 0 0 0 0 0 0 0 0 0 0 0 0 0 0 0 0 0 0 0 0 0 0 0 0 0 0 0 0 0 0 0 0 0 0 0 0 0 0 0 0 0 0 0 0 0 0 0 0 0;
#X coords 0 1 50 -1 200 140 1;
#X restore 646 1913 graph;
#X obj 49 1307 bng 19 250 50 0 empty empty empty 0 -10 0 12 #9c00ff #000000 #000000;
#X obj 716 1834 *~ 0.5;
#X obj 716 1871 dac~;
#N canvas 567 39 450 527 note 0;
#X obj 105 347 *~;
#X obj 104 73 t f b;
#X obj 104 44 mtof;
#X obj 136 193 line~;
#X obj 137 256 *~;
#X obj 136 226 *~;
#X obj 214 134 del 10;
#X obj 136 135 pack 1 3;
#X obj 214 162 pack 0 500;
#X obj 136 104 bng 19 250 50 0 empty empty empty 0 -10 0 12 #9c00ff #000000 #000000;
#X obj 104 283 *~;
#X obj 105 313 osc~ 40;
#X obj 86 382 +~;
#X obj 84 409 osc~;
#X obj 84 447 *~;
#X obj 104 14 inlet;
#X obj 85 480 outlet~;
#X connect 0 0 12 1;
#X connect 1 0 10 0;
#X connect 1 0 12 0;
#X connect 1 1 9 0;
#X connect 2 0 1 0;
#X connect 3 0 5 0;
#X connect 3 0 5 1;
#X connect 4 0 10 1;
#X connect 4 0 14 1;
#X connect 5 0 4 0;
#X connect 5 0 4 1;
#X connect 6 0 8 0;
#X connect 7 0 3 0;
#X connect 8 0 3 0;
#X connect 9 0 7 0;
#X connect 9 0 6 0;
#X connect 10 0 11 0;
#X connect 11 0 0 0;
#X connect 12 0 13 0;
#X connect 13 0 14 0;
#X connect 14 0 16 0;
#X connect 15 0 2 0;
#X restore 717 1798 pd note;
#X msg 49 1343 30;
#X obj 184 1313 bng 19 250 50 0 empty empty empty 0 -10 0 12 #9c00ff #000000 #000000;
#X obj 324 1314 bng 19 250 50 0 empty empty empty 0 -10 0 12 #9c00ff #000000 #000000;
#X obj 466 1315 bng 19 250 50 0 empty empty empty 0 -10 0 12 #9c00ff #000000 #000000;
#X msg 184 1348 35;
#X msg 324 1350 40;
#X msg 466 1351 45;
#X obj 257 1419 bng 19 250 50 0 empty empty empty 0 -10 0 12 #9c00ff #000000 #000000;
#X obj 392 1425 bng 19 250 50 0 empty empty empty 0 -10 0 12 #9c00ff #000000 #000000;
#X obj 532 1426 bng 19 250 50 0 empty empty empty 0 -10 0 12 #9c00ff #000000 #000000;
#X obj 674 1427 bng 19 250 50 0 empty empty empty 0 -10 0 12 #9c00ff #000000 #000000;
#X msg 257 1460 50;
#X msg 392 1460 55;
#X msg 532 1462 60;
#X msg 674 1463 65;
#X obj 257 1391 route gridButton13;
#X obj 392 1391 route gridButton14;
#X obj 532 1392 route gridButton15;
#X obj 674 1392 route gridButton16;
#X obj 458 1527 bng 19 250 50 0 empty empty empty 0 -10 0 12 #9c00ff #000000 #000000;
#X obj 593 1533 bng 19 250 50 0 empty empty empty 0 -10 0 12 #9c00ff #000000 #000000;
#X obj 733 1534 bng 19 250 50 0 empty empty empty 0 -10 0 12 #9c00ff #000000 #000000;
#X obj 875 1535 bng 19 250 50 0 empty empty empty 0 -10 0 12 #9c00ff #000000 #000000;
#X obj 458 1499 route gridButton17;
#X obj 593 1499 route gridButton18;
#X obj 733 1500 route gridButton19;
#X obj 875 1500 route gridButton20;
#X msg 458 1568 70;
#X msg 593 1568 75;
#X msg 733 1570 80;
#X msg 875 1571 85;
#X obj 779 1631 bng 19 250 50 0 empty empty empty 0 -10 0 12 #9c00ff #000000 #000000;
#X obj 914 1637 bng 19 250 50 0 empty empty empty 0 -10 0 12 #9c00ff #000000 #000000;
#X obj 1054 1638 bng 19 250 50 0 empty empty empty 0 -10 0 12 #9c00ff #000000 #000000;
#X obj 1196 1639 bng 19 250 50 0 empty empty empty 0 -10 0 12 #9c00ff #000000 #000000;
#X msg 779 1672 90;
#X msg 914 1672 95;
#X msg 1054 1674 100;
#X msg 1196 1675 105;
#X obj 779 1603 route gridButton21;
#X obj 914 1603 route gridButton22;
#X obj 1054 1604 route gridButton23;
#X obj 1196 1604 route gridButton24;
#X msg 592 325 0.6;
#X connect 0 0 7 0;
#X connect 1 0 2 0;
#X connect 2 0 3 0;
#X connect 2 0 4 0;
#X connect 3 0 7 0;
#X connect 4 0 5 0;
#X connect 5 0 6 0;
#X connect 6 0 7 0;
#X connect 7 0 8 0;
#X connect 8 0 9 1;
#X connect 9 0 11 0;
#X connect 10 0 64 0;
#X connect 11 0 12 0;
#X connect 11 0 12 1;
#X connect 11 0 186 0;
#X connect 13 0 9 0;
#X connect 14 0 61 0;
#X connect 15 0 1 0;
#X connect 15 0 0 0;
#X connect 16 0 14 0;
#X connect 16 0 17 0;
#X connect 16 0 18 0;
#X connect 16 0 19 0;
#X connect 16 0 24 0;
#X connect 16 0 112 0;
#X connect 16 0 113 0;
#X connect 16 0 114 0;
#X connect 16 0 115 0;
#X connect 16 0 116 0;
#X connect 16 0 117 0;
#X connect 16 0 118 0;
#X connect 16 0 210 0;
#X connect 16 0 211 0;
#X connect 16 0 212 0;
#X connect 16 0 213 0;
#X connect 16 0 218 0;
#X connect 16 0 219 0;
#X connect 16 0 220 0;
#X connect 16 0 221 0;
#X connect 16 0 234 0;
#X connect 16 0 235 0;
#X connect 16 0 236 0;
#X connect 16 0 237 0;
#X connect 17 0 62 0;
#X connect 18 0 63 0;
#X connect 19 0 73 0;
#X connect 24 0 15 0;
#X connect 25 0 27 0;
#X connect 26 0 27 1;
#X connect 27 0 30 0;
#X connect 29 0 26 0;
#X connect 30 0 28 0;
#X connect 30 0 28 1;
#X connect 30 0 171 0;
#X connect 31 0 33 0;
#X connect 32 0 33 1;
#X connect 33 0 32 0;
#X connect 33 0 35 0;
#X connect 34 0 44 0;
#X connect 34 1 43 0;
#X connect 34 2 42 0;
#X connect 35 0 34 0;
#X connect 36 0 37 0;
#X connect 37 0 38 0;
#X connect 38 0 39 0;
#X connect 38 0 39 1;
#X connect 38 0 173 0;
#X connect 40 0 31 0;
#X connect 41 0 40 0;
#X connect 41 0 67 0;
#X connect 42 0 36 0;
#X connect 43 0 36 0;
#X connect 44 0 36 0;
#X connect 45 0 47 0;
#X connect 46 0 47 1;
#X connect 47 0 46 0;
#X connect 47 0 48 0;
#X connect 48 0 56 0;
#X connect 49 0 50 0;
#X connect 50 0 58 0;
#X connect 52 0 59 0;
#X connect 52 0 69 0;
#X connect 53 0 49 0;
#X connect 54 0 49 0;
#X connect 55 0 49 0;
#X connect 56 0 53 0;
#X connect 56 1 54 0;
#X connect 56 2 55 0;
#X connect 56 3 57 0;
#X connect 58 0 51 0;
#X connect 58 0 51 1;
#X connect 58 0 175 0;
#X connect 59 0 45 0;
#X connect 60 0 29 0;
#X connect 60 0 65 0;
#X connect 61 0 60 0;
#X connect 62 0 41 0;
#X connect 63 0 52 0;
#X connect 64 0 13 0;
#X connect 65 0 66 0;
#X connect 65 1 111 0;
#X connect 66 0 30 1;
#X connect 67 0 68 0;
#X connect 67 1 238 0;
#X connect 68 0 38 1;
#X connect 69 0 70 0;
#X connect 69 1 110 0;
#X connect 70 0 58 1;
#X connect 71 0 76 0;
#X connect 71 0 87 0;
#X connect 71 0 86 0;
#X connect 72 0 74 0;
#X connect 72 0 78 0;
#X connect 73 0 72 0;
#X connect 74 0 71 0;
#X connect 75 0 76 1;
#X connect 76 0 75 0;
#X connect 76 0 164 0;
#X connect 77 0 80 0;
#X connect 78 0 79 0;
#X connect 78 1 109 0;
#X connect 79 0 100 1;
#X connect 80 0 81 0;
#X connect 81 0 82 0;
#X connect 82 0 101 0;
#X connect 83 0 85 0;
#X connect 83 0 183 0;
#X connect 84 0 85 1;
#X connect 84 0 183 0;
#X connect 86 0 88 0;
#X connect 87 0 89 0;
#X connect 88 0 90 0;
#X connect 89 0 91 0;
#X connect 90 0 92 0;
#X connect 91 0 93 0;
#X connect 92 0 94 0;
#X connect 93 0 95 0;
#X connect 94 0 96 0;
#X connect 95 0 97 0;
#X connect 96 0 98 0;
#X connect 97 0 99 0;
#X connect 98 0 83 1;
#X connect 99 0 84 1;
#X connect 100 0 83 0;
#X connect 100 0 84 0;
#X connect 101 0 100 0;
#X connect 102 0 77 0;
#X connect 103 0 77 0;
#X connect 104 0 77 0;
#X connect 109 0 100 1;
#X connect 110 0 58 1;
#X connect 111 0 30 1;
#X connect 112 0 128 0;
#X connect 113 0 142 0;
#X connect 114 0 153 0;
#X connect 115 0 191 0;
#X connect 116 0 196 0;
#X connect 117 0 197 0;
#X connect 118 0 198 0;
#X connect 119 0 120 0;
#X connect 120 0 121 0;
#X connect 120 0 163 0;
#X connect 121 0 123 0;
#X connect 122 0 131 0;
#X connect 123 0 124 0;
#X connect 124 0 125 1;
#X connect 125 0 127 0;
#X connect 126 0 129 0;
#X connect 127 0 166 0;
#X connect 127 0 166 1;
#X connect 127 0 186 0;
#X connect 128 0 119 0;
#X connect 128 0 130 0;
#X connect 129 0 158 0;
#X connect 130 0 123 0;
#X connect 131 0 123 0;
#X connect 132 0 133 0;
#X connect 133 0 135 0;
#X connect 133 0 134 0;
#X connect 134 0 137 0;
#X connect 135 0 136 0;
#X connect 136 0 156 0;
#X connect 137 0 138 0;
#X connect 138 0 139 1;
#X connect 139 0 141 0;
#X connect 140 0 143 0;
#X connect 141 0 167 0;
#X connect 141 0 167 1;
#X connect 141 0 186 0;
#X connect 142 0 132 0;
#X connect 142 0 155 0;
#X connect 143 0 157 0;
#X connect 144 0 145 0;
#X connect 145 0 146 0;
#X connect 145 0 160 0;
#X connect 146 0 147 0;
#X connect 147 0 161 0;
#X connect 148 0 149 0;
#X connect 149 0 150 1;
#X connect 150 0 152 0;
#X connect 151 0 154 0;
#X connect 152 0 168 0;
#X connect 152 0 168 1;
#X connect 152 0 186 0;
#X connect 153 0 144 0;
#X connect 153 0 159 0;
#X connect 154 0 162 0;
#X connect 155 0 137 0;
#X connect 156 0 137 0;
#X connect 157 0 139 0;
#X connect 158 0 125 0;
#X connect 159 0 148 0;
#X connect 160 0 148 0;
#X connect 161 0 148 0;
#X connect 162 0 150 0;
#X connect 163 0 122 0;
#X connect 164 0 165 0;
#X connect 165 0 102 0;
#X connect 165 1 103 0;
#X connect 165 2 104 0;
#X connect 165 3 105 0;
#X connect 165 4 106 0;
#X connect 165 5 107 0;
#X connect 165 6 108 0;
#X connect 169 0 177 0;
#X connect 170 0 169 0;
#X connect 179 0 171 0;
#X connect 180 0 173 0;
#X connect 181 0 175 0;
#X connect 182 0 183 0;
#X connect 185 0 186 0;
#X connect 188 0 189 0;
#X connect 191 0 195 0;
#X connect 192 0 193 0;
#X connect 192 0 193 1;
#X connect 192 0 189 0;
#X connect 194 0 192 0;
#X connect 195 0 194 0;
#X connect 196 0 199 0;
#X connect 197 0 200 0;
#X connect 198 0 201 0;
#X connect 199 0 194 0;
#X connect 200 0 194 0;
#X connect 201 0 194 0;
#X connect 202 0 206 0;
#X connect 203 0 207 0;
#X connect 204 0 208 0;
#X connect 205 0 209 0;
#X connect 206 0 194 0;
#X connect 207 0 194 0;
#X connect 208 0 194 0;
#X connect 209 0 194 0;
#X connect 210 0 202 0;
#X connect 211 0 203 0;
#X connect 212 0 204 0;
#X connect 213 0 205 0;
#X connect 214 0 222 0;
#X connect 215 0 223 0;
#X connect 216 0 224 0;
#X connect 217 0 225 0;
#X connect 218 0 214 0;
#X connect 219 0 215 0;
#X connect 220 0 216 0;
#X connect 221 0 217 0;
#X connect 222 0 194 0;
#X connect 223 0 194 0;
#X connect 224 0 194 0;
#X connect 225 0 194 0;
#X connect 226 0 230 0;
#X connect 227 0 231 0;
#X connect 228 0 232 0;
#X connect 229 0 233 0;
#X connect 230 0 194 0;
#X connect 231 0 194 0;
#X connect 232 0 194 0;
#X connect 233 0 194 0;
#X connect 234 0 226 0;
#X connect 235 0 227 0;
#X connect 236 0 228 0;
#X connect 237 0 229 0;
#X connect 238 0 38 1;
#X restore 518 107 pd Page4OSCcontroller;
#X connect 0 0 7 0;
#X connect 7 0 1 0;
#X connect 7 0 8 0;
#X connect 7 0 9 0;
#X connect 7 0 10 0;
#X connect 7 0 11 0;
