#N canvas 130 130 450 479 12;
#X obj 240 17 inlet;
#X obj 297 17 inlet;
#X obj 240 49 bng 19 250 50 0 empty empty empty 0 -10 0 12 #9c00ff #000000 #000000;
#X obj 240 79 f;
#X obj 240 111 t f b;
#X obj 272 143 random 10;
#X obj 272 173 / 20;
#X obj 272 203 + 0.7;
#X obj 148 247 noise~;
#X obj 149 278 hip~ 20000;
#X obj 148 308 hip~ 10000;
#X obj 188 362 *~;
#X obj 188 395 outlet~;
#X msg 240 277 \$1 \, 0 40 1;
#X obj 240 306 vline~;
#X obj 240 249 *;
#X connect 0 0 2 0;
#X connect 1 0 3 1;
#X connect 2 0 3 0;
#X connect 3 0 4 0;
#X connect 4 0 15 0;
#X connect 4 1 5 0;
#X connect 5 0 6 0;
#X connect 6 0 7 0;
#X connect 7 0 15 1;
#X connect 8 0 9 0;
#X connect 9 0 10 0;
#X connect 10 0 11 0;
#X connect 11 0 12 0;
#X connect 13 0 14 0;
#X connect 14 0 11 1;
#X connect 15 0 13 0;
