#N canvas 78 78 450 300 12;
#X obj 138 24 inlet;
#X obj 215 24 inlet;
#X obj 138 54 bng 19 250 50 0 empty empty empty 0 -10 0 12 #9c00ff #000000 #000000;
#X obj 198 89 f;
#X msg 138 114 150 \, 50 70 0;
#X obj 138 150 vline~;
#X msg 197 147 \$1 1 0 \, 0 100 1;
#X obj 197 177 vline~;
#X obj 138 219 *~;
#X obj 137 253 outlet~;
#X obj 139 184 osc~;
#X connect 0 0 2 0;
#X connect 1 0 3 1;
#X connect 2 0 3 0;
#X connect 2 0 4 0;
#X connect 3 0 6 0;
#X connect 4 0 5 0;
#X connect 5 0 10 0;
#X connect 6 0 7 0;
#X connect 7 0 8 1;
#X connect 8 0 9 0;
#X connect 10 0 8 0;
