#N canvas 258 217 1034 291 12;
#X text 208 209 SendSoundToRepeat;
#X text 713 187 RecieveBangForRepeat;
#X obj 42 130 spigot;
#X obj 42 40 inlet;
#X obj 42 162 s loopPlay;
#X obj 81 96 tgl 19 0 empty empty empty 0 -10 0 12 #00faff #000000 #000000 0 1;
#X obj 81 65 inlet;
#X msg 531 116 start;
#X obj 531 164 outlet;
#X obj 126 130 spigot;
#X obj 126 40 inlet;
#X obj 165 96 tgl 19 0 empty empty empty 0 -10 0 12 #00faff #000000 #000000 0 1;
#X obj 165 65 inlet;
#X obj 214 130 spigot;
#X obj 214 40 inlet;
#X obj 253 96 tgl 19 0 empty empty empty 0 -10 0 12 #00faff #000000 #000000 0 1;
#X obj 253 65 inlet;
#X text 57 183 Sound1;
#X text 145 185 Sound2;
#X text 225 186 Sound3;
#X obj 126 162 s loopPlay2;
#X obj 214 162 s loopPlay3;
#X msg 617 114 start;
#X obj 617 162 outlet;
#X msg 714 114 start;
#X obj 714 162 outlet;
#X obj 617 72 r loopPlay2;
#X obj 714 72 r loopPlay3;
#X obj 531 74 r loopPlay;
#X obj 315 130 spigot;
#X obj 315 40 inlet;
#X obj 354 96 tgl 19 0 empty empty empty 0 -10 0 12 #00faff #000000 #000000 0 1;
#X obj 354 65 inlet;
#X obj 315 162 s loopPlay4;
#X text 314 183 Sound4Voice;
#X msg 813 113 start;
#X obj 813 161 outlet;
#X obj 813 71 r loopPlay4;
#X msg 908 114 start;
#X obj 908 162 outlet;
#X obj 908 72 r loopPlay5;
#X obj 412 130 spigot;
#X obj 412 40 inlet;
#X obj 451 96 tgl 19 0 empty empty empty 0 -10 0 12 #00faff #000000 #000000 0 1;
#X obj 451 65 inlet;
#X obj 412 162 s loopPlay5;
#X text 411 183 Sound5Voice2;
#X connect 2 0 4 0;
#X connect 3 0 2 0;
#X connect 5 0 2 1;
#X connect 6 0 5 0;
#X connect 7 0 8 0;
#X connect 9 0 20 0;
#X connect 10 0 9 0;
#X connect 11 0 9 1;
#X connect 12 0 11 0;
#X connect 13 0 21 0;
#X connect 14 0 13 0;
#X connect 15 0 13 1;
#X connect 16 0 15 0;
#X connect 22 0 23 0;
#X connect 24 0 25 0;
#X connect 26 0 22 0;
#X connect 27 0 24 0;
#X connect 28 0 7 0;
#X connect 29 0 33 0;
#X connect 30 0 29 0;
#X connect 31 0 29 1;
#X connect 32 0 31 0;
#X connect 35 0 36 0;
#X connect 37 0 35 0;
#X connect 38 0 39 0;
#X connect 40 0 38 0;
#X connect 41 0 45 0;
#X connect 42 0 41 0;
#X connect 43 0 41 1;
#X connect 44 0 43 0;
