#N canvas 113 233 821 291 12;
#X text 188 213 SendSoundToRepeat;
#X text 529 190 RecieveBangForRepeat;
#X obj 42 130 spigot;
#X obj 42 40 inlet;
#X obj 42 162 s loopPlay;
#X obj 81 96 tgl 19 0 empty empty empty 0 -10 0 12 #00faff #000000 #000000 0 1;
#X obj 81 65 inlet;
#X msg 432 112 start;
#X obj 432 160 outlet;
#X obj 126 130 spigot;
#X obj 126 40 inlet;
#X obj 165 96 tgl 19 0 empty empty empty 0 -10 0 12 #00faff #000000 #000000 0 1;
#X obj 165 65 inlet;
#X obj 214 130 spigot;
#X obj 214 40 inlet;
#X obj 253 96 tgl 19 0 empty empty empty 0 -10 0 12 #00faff #000000 #000000 0 1;
#X obj 253 65 inlet;
#X obj 126 162 s loopPlay2;
#X obj 214 162 s loopPlay3;
#X msg 518 110 start;
#X obj 518 158 outlet;
#X msg 615 110 start;
#X obj 615 158 outlet;
#X obj 518 68 r loopPlay2;
#X obj 615 68 r loopPlay3;
#X obj 432 70 r loopPlay;
#X obj 315 130 spigot;
#X obj 315 40 inlet;
#X obj 354 96 tgl 19 0 empty empty empty 0 -10 0 12 #00faff #000000 #000000 0 1;
#X obj 354 65 inlet;
#X obj 315 162 s loopPlay4;
#X msg 714 109 start;
#X obj 714 157 outlet;
#X obj 714 67 r loopPlay4;
#X text 35 182 Sound1Voice;
#X text 124 185 Sound2Voice;
#X text 218 185 Sound3OSC;
#X text 319 185 Sound4OSC;
#X connect 2 0 4 0;
#X connect 3 0 2 0;
#X connect 5 0 2 1;
#X connect 6 0 5 0;
#X connect 7 0 8 0;
#X connect 9 0 17 0;
#X connect 10 0 9 0;
#X connect 11 0 9 1;
#X connect 12 0 11 0;
#X connect 13 0 18 0;
#X connect 14 0 13 0;
#X connect 15 0 13 1;
#X connect 16 0 15 0;
#X connect 19 0 20 0;
#X connect 21 0 22 0;
#X connect 23 0 19 0;
#X connect 24 0 21 0;
#X connect 25 0 7 0;
#X connect 26 0 30 0;
#X connect 27 0 26 0;
#X connect 28 0 26 1;
#X connect 29 0 28 0;
#X connect 31 0 32 0;
#X connect 33 0 31 0;
