#N canvas 4 0 1366 677 12;
#X msg 244 682 1 5;
#X obj 294 683 delay 5;
#X obj 294 717 bng 19 250 50 0 empty empty empty 0 -10 0 12 #9c00ff #000000 #000000;
#X msg 294 753 0.5 100;
#X obj 366 754 delay 100;
#X obj 366 789 bng 19 250 50 0 empty empty empty 0 -10 0 12 #9c00ff #000000 #000000;
#X msg 366 817 0 150;
#X obj 244 844 line;
#X floatatom 244 873 5 0 0 0 - - - 0;
#X obj 248 904 *~, f 4;
#X obj 166 750 noise~;
#X obj 247 934 *~ -1;
#X obj 247 973 dac~;
#X obj 166 822 hip~ 4000;
#X obj 326 69 route gridButton1;
#X obj 244 651 bng 19 250 50 0 empty empty empty 0 -10 0 12 #9c00ff #000000 #000000;
#X obj 644 18 inlet OSC;
#X obj 474 70 route gridButton2;
#X obj 652 70 route gridButton3;
#X obj 859 67 route gridButton4;
#X text 362 91 Sound1;
#X text 512 90 Sound2;
#X text 692 90 Sound3;
#X text 899 86 Sound4;
#X obj 244 619 route gridButton5;
#X obj 269 182 noise~;
#X obj 326 183 osc~;
#X obj 307 224 *~;
#X obj 307 291 dac~;
#X msg 326 153 0.5;
#X obj 307 255 *~;
#X obj 474 185 bng 19 250 50 0 empty empty empty 0 -10 0 12 #9c00ff #000000 #000000;
#X obj 519 218 + 1;
#X obj 474 219 f;
#X obj 474 291 sel 0 1;
#X obj 474 252 mod 3;
#X floatatom 474 358 5 0 0 0 - - - 0;
#X obj 474 391 osc~;
#X obj 475 427 *~, f 4;
#X obj 475 463 dac~;
#X obj 474 155 metro 200;
#X obj 474 127 tgl 19 0 empty empty empty 0 -10 0 12 #c6ffc7 #000000 #000000 0 1;
#X msg 520 324 150;
#X msg 497 324 100;
#X msg 474 324 75;
#X obj 652 181 bng 19 250 50 0 empty empty empty 0 -10 0 12 #9c00ff #000000 #000000;
#X obj 697 214 + 1;
#X obj 652 215 f;
#X obj 652 248 mod 3;
#X floatatom 652 354 5 0 0 0 - - - 0;
#X obj 652 387 osc~;
#X obj 652 456 dac~;
#X obj 652 121 tgl 19 0 empty empty empty 0 -10 0 12 #c6ffc7 #000000 #000000 0 1;
#X msg 652 320 900;
#X msg 675 320 850;
#X msg 698 320 800;
#X obj 652 287 sel 0 1 2;
#X msg 721 320 750;
#X obj 653 423 *~;
#X obj 652 151 metro 50;
#X obj 326 123 tgl 19 0 empty empty empty 0 -10 0 12 #c6ffc7 #000000 #000000 0 1;
#X obj 326 96 bng 19 250 50 0 empty empty empty 0 -10 0 12 #9c00ff #000000 #000000;
#X obj 474 98 bng 19 250 50 0 empty empty empty 0 -10 0 12 #9c00ff #000000 #000000;
#X obj 652 97 bng 19 250 50 0 empty empty empty 0 -10 0 12 #9c00ff #000000 #000000;
#X obj 167 789 *~ 0.15;
#X obj 376 183 sel 0;
#X msg 376 217 0;
#X obj 560 291 sel 0;
#X msg 560 325 0;
#X obj 765 286 sel 0;
#X msg 765 320 0;
#X obj 859 180 bng 19 250 50 0 empty empty empty 0 -10 0 12 #9c00ff #000000 #000000;
#X obj 859 120 tgl 19 0 empty empty empty 0 -10 0 12 #c6ffc7 #000000 #000000 0 1;
#X obj 859 96 bng 19 250 50 0 empty empty empty 0 -10 0 12 #9c00ff #000000 #000000;
#X obj 859 150 metro 180;
#X obj 904 211 + 1;
#X obj 859 212 f;
#X floatatom 859 351 5 0 0 0 - - - 0;
#X obj 1038 283 sel 0;
#X msg 1038 317 0;
#X msg 859 380 \$1 20;
#X obj 859 413 line 0 3;
#X obj 859 444 mtof;
#X obj 858 541 samphold~;
#X obj 949 541 samphold~;
#X obj 857 581 dac~;
#X obj 1114 226 random 98;
#X obj 1194 225 random 98;
#X obj 1114 257 + 30;
#X obj 1194 256 + 30;
#X floatatom 1114 285 5 0 0 0 - - - 0;
#X floatatom 1194 287 5 0 0 0 - - - 0;
#X msg 1114 317 \$1 180;
#X msg 1194 316 \$1 50;
#X obj 1114 349 line 0 3;
#X obj 1194 350 line 0 3;
#X obj 1114 379 mtof;
#X obj 1194 381 mtof;
#X obj 1114 409 phasor~;
#X obj 1194 408 phasor~;
#X obj 858 507 *~;
#X obj 859 473 osc~ 200;
#X msg 859 317 100;
#X msg 882 317 220;
#X msg 905 317 40;
#X msg 928 317 450;
#X msg 951 317 500;
#X msg 979 317 50;
#X msg 996 317 360;
#X msg 1070 317 0.05;
#X msg 797 320 0.05;
#X msg 408 217 0.05;
#X obj 548 618 route gridButton6;
#X obj 840 616 route gridButton7;
#X obj 1124 614 route gridButton8;
#X obj 533 1087 bng 19 250 50 0 empty empty empty 0 -10 0 12 #9c00ff #000000 #000000;
#X obj 533 1145 vline~;
#X obj 533 1174 *~;
#X obj 533 1203 osc~ 440;
#X obj 705 1086 bng 19 250 50 0 empty empty empty 0 -10 0 12 #9c00ff #000000 #000000;
#X obj 705 1144 vline~;
#X obj 705 1173 *~;
#X obj 705 1202 osc~ 440;
#X obj 910 1086 bng 19 250 50 0 empty empty empty 0 -10 0 12 #9c00ff #000000 #000000;
#X obj 910 1144 vline~;
#X obj 910 1173 *~;
#X obj 910 1202 osc~ 440;
#X obj 344 1090 bng 19 250 50 0 empty empty empty 0 -10 0 12 #9c00ff #000000 #000000;
#X obj 344 1148 vline~;
#X obj 344 1177 *~;
#X obj 344 1243 dac~;
#X obj 344 1206 osc~ 440;
#X obj 344 1058 route gridButton9;
#X obj 533 1055 route gridButton10;
#X obj 705 1055 route gridButton11;
#X obj 910 1054 route gridButton12;
#X msg 344 1118 500 \, 0 100 500;
#X msg 705 1114 1200 \, 0 100 500;
#X msg 533 1115 900 \, 0 100 500;
#X msg 910 1113 1600 \, 0 100 500;
#X obj 598 677 delay 5;
#X obj 598 711 bng 19 250 50 0 empty empty empty 0 -10 0 12 #9c00ff #000000 #000000;
#X msg 598 747 0.5 100;
#X obj 670 783 bng 19 250 50 0 empty empty empty 0 -10 0 12 #9c00ff #000000 #000000;
#X obj 548 838 line;
#X floatatom 548 867 5 0 0 0 - - - 0;
#X obj 552 898 *~, f 4;
#X obj 470 744 noise~;
#X obj 551 928 *~ -1;
#X obj 548 645 bng 19 250 50 0 empty empty empty 0 -10 0 12 #9c00ff #000000 #000000;
#X obj 471 783 *~ 0.15;
#X msg 548 676 1 30;
#X msg 670 811 0 300;
#X obj 890 680 delay 5;
#X obj 890 714 bng 19 250 50 0 empty empty empty 0 -10 0 12 #9c00ff #000000 #000000;
#X msg 890 750 0.5 100;
#X obj 962 751 delay 100;
#X obj 962 786 bng 19 250 50 0 empty empty empty 0 -10 0 12 #9c00ff #000000 #000000;
#X obj 840 841 line;
#X floatatom 840 870 5 0 0 0 - - - 0;
#X obj 844 901 *~, f 4;
#X obj 762 747 noise~;
#X obj 843 931 *~ -1;
#X obj 840 648 bng 19 250 50 0 empty empty empty 0 -10 0 12 #9c00ff #000000 #000000;
#X obj 763 786 *~ 0.15;
#X obj 1174 676 delay 5;
#X obj 1174 710 bng 19 250 50 0 empty empty empty 0 -10 0 12 #9c00ff #000000 #000000;
#X obj 1246 747 delay 100;
#X obj 1246 782 bng 19 250 50 0 empty empty empty 0 -10 0 12 #9c00ff #000000 #000000;
#X obj 1124 837 line;
#X floatatom 1124 866 5 0 0 0 - - - 0;
#X obj 1128 897 *~, f 4;
#X obj 1046 743 noise~;
#X obj 1127 927 *~ -1;
#X obj 1124 644 bng 19 250 50 0 empty empty empty 0 -10 0 12 #9c00ff #000000 #000000;
#X obj 1047 782 *~ 0.15;
#X msg 840 679 1 5;
#X msg 962 814 0 150;
#X obj 762 819 hip~ 200;
#X obj 470 816 hip~ 6000;
#X msg 1124 675 1 100;
#X msg 1174 746 0.5 250;
#X msg 1246 810 0 450;
#X msg 299 1118 0.08;
#X msg 488 1115 0.08;
#X msg 660 1114 0.08;
#X msg 865 1114 0.08;
#X msg 592 325 0.2;
#X obj 1046 815 hip~ 12000;
#X obj 670 748 delay 200;
#X obj 859 245 mod 6;
#X obj 859 284 sel 0 1 2 4 5 7;
#X obj 533 1240 dac~;
#X obj 704 1239 dac~;
#X obj 909 1237 dac~;
#X obj 552 968 dac~;
#X obj 843 966 dac~;
#X obj 1127 966 dac~;
#X connect 0 0 7 0;
#X connect 1 0 2 0;
#X connect 2 0 3 0;
#X connect 2 0 4 0;
#X connect 3 0 7 0;
#X connect 4 0 5 0;
#X connect 5 0 6 0;
#X connect 6 0 7 0;
#X connect 7 0 8 0;
#X connect 8 0 9 1;
#X connect 9 0 11 0;
#X connect 10 0 64 0;
#X connect 11 0 12 0;
#X connect 11 0 12 1;
#X connect 13 0 9 0;
#X connect 14 0 61 0;
#X connect 15 0 1 0;
#X connect 15 0 0 0;
#X connect 16 0 14 0;
#X connect 16 0 17 0;
#X connect 16 0 18 0;
#X connect 16 0 19 0;
#X connect 16 0 24 0;
#X connect 16 0 112 0;
#X connect 16 0 113 0;
#X connect 16 0 114 0;
#X connect 16 0 132 0;
#X connect 16 0 133 0;
#X connect 16 0 134 0;
#X connect 16 0 135 0;
#X connect 17 0 62 0;
#X connect 18 0 63 0;
#X connect 19 0 73 0;
#X connect 24 0 15 0;
#X connect 25 0 27 0;
#X connect 26 0 27 1;
#X connect 27 0 30 0;
#X connect 29 0 26 0;
#X connect 30 0 28 0;
#X connect 30 0 28 1;
#X connect 31 0 33 0;
#X connect 32 0 33 1;
#X connect 33 0 32 0;
#X connect 33 0 35 0;
#X connect 34 0 44 0;
#X connect 34 1 43 0;
#X connect 34 2 42 0;
#X connect 35 0 34 0;
#X connect 36 0 37 0;
#X connect 37 0 38 0;
#X connect 38 0 39 0;
#X connect 38 0 39 1;
#X connect 40 0 31 0;
#X connect 41 0 40 0;
#X connect 41 0 67 0;
#X connect 42 0 36 0;
#X connect 43 0 36 0;
#X connect 44 0 36 0;
#X connect 45 0 47 0;
#X connect 46 0 47 1;
#X connect 47 0 46 0;
#X connect 47 0 48 0;
#X connect 48 0 56 0;
#X connect 49 0 50 0;
#X connect 50 0 58 0;
#X connect 52 0 59 0;
#X connect 52 0 69 0;
#X connect 53 0 49 0;
#X connect 54 0 49 0;
#X connect 55 0 49 0;
#X connect 56 0 53 0;
#X connect 56 1 54 0;
#X connect 56 2 55 0;
#X connect 56 3 57 0;
#X connect 58 0 51 0;
#X connect 58 0 51 1;
#X connect 59 0 45 0;
#X connect 60 0 29 0;
#X connect 60 0 65 0;
#X connect 61 0 60 0;
#X connect 62 0 41 0;
#X connect 63 0 52 0;
#X connect 64 0 13 0;
#X connect 65 0 66 0;
#X connect 65 1 111 0;
#X connect 66 0 30 1;
#X connect 67 0 68 0;
#X connect 67 1 187 0;
#X connect 68 0 38 1;
#X connect 69 0 70 0;
#X connect 69 1 110 0;
#X connect 70 0 58 1;
#X connect 71 0 76 0;
#X connect 71 0 87 0;
#X connect 71 0 86 0;
#X connect 72 0 74 0;
#X connect 72 0 78 0;
#X connect 73 0 72 0;
#X connect 74 0 71 0;
#X connect 75 0 76 1;
#X connect 76 0 75 0;
#X connect 76 0 190 0;
#X connect 77 0 80 0;
#X connect 78 0 79 0;
#X connect 78 1 109 0;
#X connect 79 0 100 1;
#X connect 80 0 81 0;
#X connect 81 0 82 0;
#X connect 82 0 101 0;
#X connect 83 0 85 0;
#X connect 84 0 85 1;
#X connect 86 0 88 0;
#X connect 87 0 89 0;
#X connect 88 0 90 0;
#X connect 89 0 91 0;
#X connect 90 0 92 0;
#X connect 91 0 93 0;
#X connect 92 0 94 0;
#X connect 93 0 95 0;
#X connect 94 0 96 0;
#X connect 95 0 97 0;
#X connect 96 0 98 0;
#X connect 97 0 99 0;
#X connect 98 0 83 1;
#X connect 99 0 84 1;
#X connect 100 0 83 0;
#X connect 100 0 84 0;
#X connect 101 0 100 0;
#X connect 102 0 77 0;
#X connect 103 0 77 0;
#X connect 104 0 77 0;
#X connect 109 0 100 1;
#X connect 110 0 58 1;
#X connect 111 0 30 1;
#X connect 112 0 149 0;
#X connect 113 0 163 0;
#X connect 114 0 174 0;
#X connect 115 0 184 0;
#X connect 115 0 138 0;
#X connect 116 0 117 0;
#X connect 117 0 118 0;
#X connect 118 0 192 0;
#X connect 118 0 192 1;
#X connect 119 0 185 0;
#X connect 119 0 137 0;
#X connect 120 0 121 0;
#X connect 121 0 122 0;
#X connect 122 0 193 0;
#X connect 122 0 193 1;
#X connect 123 0 186 0;
#X connect 123 0 139 0;
#X connect 124 0 125 0;
#X connect 125 0 126 0;
#X connect 126 0 194 0;
#X connect 126 0 194 1;
#X connect 127 0 136 0;
#X connect 127 0 183 0;
#X connect 128 0 129 0;
#X connect 129 0 131 0;
#X connect 131 0 130 0;
#X connect 131 0 130 1;
#X connect 132 0 127 0;
#X connect 133 0 115 0;
#X connect 134 0 119 0;
#X connect 135 0 123 0;
#X connect 136 0 128 0;
#X connect 137 0 120 0;
#X connect 138 0 116 0;
#X connect 139 0 124 0;
#X connect 140 0 141 0;
#X connect 141 0 142 0;
#X connect 141 0 189 0;
#X connect 142 0 144 0;
#X connect 143 0 152 0;
#X connect 144 0 145 0;
#X connect 145 0 146 1;
#X connect 146 0 148 0;
#X connect 147 0 150 0;
#X connect 148 0 195 0;
#X connect 148 0 195 1;
#X connect 149 0 140 0;
#X connect 149 0 151 0;
#X connect 150 0 179 0;
#X connect 151 0 144 0;
#X connect 152 0 144 0;
#X connect 153 0 154 0;
#X connect 154 0 156 0;
#X connect 154 0 155 0;
#X connect 155 0 158 0;
#X connect 156 0 157 0;
#X connect 157 0 177 0;
#X connect 158 0 159 0;
#X connect 159 0 160 1;
#X connect 160 0 162 0;
#X connect 161 0 164 0;
#X connect 162 0 196 0;
#X connect 162 0 196 1;
#X connect 163 0 153 0;
#X connect 163 0 176 0;
#X connect 164 0 178 0;
#X connect 165 0 166 0;
#X connect 166 0 167 0;
#X connect 166 0 181 0;
#X connect 167 0 168 0;
#X connect 168 0 182 0;
#X connect 169 0 170 0;
#X connect 170 0 171 1;
#X connect 171 0 173 0;
#X connect 172 0 175 0;
#X connect 173 0 197 0;
#X connect 173 0 197 1;
#X connect 174 0 165 0;
#X connect 174 0 180 0;
#X connect 175 0 188 0;
#X connect 176 0 158 0;
#X connect 177 0 158 0;
#X connect 178 0 160 0;
#X connect 179 0 146 0;
#X connect 180 0 169 0;
#X connect 181 0 169 0;
#X connect 182 0 169 0;
#X connect 183 0 129 1;
#X connect 184 0 117 1;
#X connect 185 0 121 1;
#X connect 186 0 125 1;
#X connect 187 0 38 1;
#X connect 188 0 171 0;
#X connect 189 0 143 0;
#X connect 190 0 191 0;
#X connect 191 0 102 0;
#X connect 191 1 103 0;
#X connect 191 2 104 0;
#X connect 191 3 105 0;
#X connect 191 4 106 0;
#X connect 191 5 107 0;
#X connect 191 6 108 0;
