#N canvas 370 166 398 234 12;
#X obj 117 31 inlet OSC;
#X obj 176 87 route slider2Dy;
#X obj 43 87 route slider2Dx;
#X floatatom 176 112 5 0 0 0 - - - 0;
#X floatatom 43 111 5 0 0 0 - - - 0;
#X text 86 110 Volume;
#X text 218 108 Frequency;
#X obj 43 134 s volVoice;
#X obj 176 137 s freqVoice;
#X connect 0 0 2 0;
#X connect 0 0 1 0;
#X connect 1 0 3 0;
#X connect 2 0 4 0;
#X connect 3 0 8 0;
#X connect 4 0 7 0;
