#N canvas 0 0 1366 677 12;
#X obj 611 42 inlet OSC;
#X obj 252 112 route gridToggle1;
#X obj 439 112 route gridToggle2;
#X obj 829 117 route gridToggle3;
#X obj 1039 115 route gridToggle4;
#X msg 298 238 stop;
#X obj 252 296 writesf~;
#X obj 454 206 readsf~;
#X obj 455 242 dac~;
#X msg 454 174 open ExtraSounds/MyVoice.wav;
#X obj 439 144 tgl 19 0 empty empty empty 0 -10 0 12 #00ff04 #000000 #000000 0 1;
#X msg 252 264 open ExtraSounds/MyVoice.wav \, start;
#X obj 252 206 bng 19 250 50 0 empty empty empty 0 -10 0 12 #ff0400 #000000 #000000;
#X obj 298 206 bng 19 250 50 0 empty empty empty 0 -10 0 12 #0400ff #000000 #000000;
#X obj 252 173 sel 1;
#X obj 252 142 tgl 19 0 empty empty empty 0 -10 0 12 #00ff04 #000000 #000000 0 1;
#X obj 524 241 loopSound, f 13;
#X msg 875 243 stop;
#X obj 829 299 writesf~;
#X obj 829 211 bng 19 250 50 0 empty empty empty 0 -10 0 12 #ff0400 #000000 #000000;
#X obj 875 211 bng 19 250 50 0 empty empty empty 0 -10 0 12 #0400ff #000000 #000000;
#X obj 829 178 sel 1;
#X obj 829 147 tgl 19 0 empty empty empty 0 -10 0 12 #00ff04 #000000 #000000 0 1;
#X msg 829 268 open ExtraSounds/MyVoice2.wav \, start;
#X obj 1054 207 readsf~;
#X obj 1055 243 dac~;
#X obj 1039 145 tgl 19 0 empty empty empty 0 -10 0 12 #00ff04 #000000 #000000 0 1;
#X obj 1124 242 loopSound, f 13;
#X msg 1054 175 open ExtraSounds/MyVoice2.wav;
#X obj 838 366 route gridToggle7;
#X obj 1022 366 route gridToggle8;
#X obj 249 402 route gridToggle5;
#X obj 437 404 route gridToggle6;
#X msg 295 526 stop;
#X obj 249 584 writesf~;
#X obj 249 494 bng 19 250 50 0 empty empty empty 0 -10 0 12 #ff0400 #000000 #000000;
#X obj 295 494 bng 19 250 50 0 empty empty empty 0 -10 0 12 #0400ff #000000 #000000;
#X obj 249 461 sel 1;
#X obj 249 430 tgl 19 0 empty empty empty 0 -10 0 12 #00ff04 #000000 #000000 0 1;
#X msg 249 552 open ExtraSounds/MyVoice3.wav \, start;
#X obj 452 492 readsf~;
#X obj 453 528 dac~;
#X obj 437 430 tgl 19 0 empty empty empty 0 -10 0 12 #00ff04 #000000 #000000 0 1;
#X obj 522 527 loopSound, f 13;
#X msg 452 459 open ExtraSounds/MyVoice3.wav;
#X msg 884 492 stop;
#X obj 838 550 writesf~;
#X obj 838 460 bng 19 250 50 0 empty empty empty 0 -10 0 12 #ff0400 #000000 #000000;
#X obj 884 460 bng 19 250 50 0 empty empty empty 0 -10 0 12 #0400ff #000000 #000000;
#X obj 838 427 sel 1;
#X obj 838 396 tgl 19 0 empty empty empty 0 -10 0 12 #00ff04 #000000 #000000 0 1;
#X obj 1037 455 readsf~;
#X obj 1038 491 dac~;
#X obj 1022 393 tgl 19 0 empty empty empty 0 -10 0 12 #00ff04 #000000 #000000 0 1;
#X obj 1107 490 loopSound, f 13;
#X msg 838 518 open ExtraSounds/MyVoice4.wav \, start;
#X msg 1037 422 open ExtraSounds/MyVoice4.wav;
#X obj 674 212 voiceTransformation;
#X obj 100 207 voiceTransformation;
#X obj 93 493 voiceTransformation;
#X obj 692 459 voiceTransformation;
#X connect 0 0 1 0;
#X connect 0 0 2 0;
#X connect 0 0 3 0;
#X connect 0 0 4 0;
#X connect 0 0 29 0;
#X connect 0 0 30 0;
#X connect 0 0 31 0;
#X connect 0 0 32 0;
#X connect 1 0 15 0;
#X connect 2 0 10 0;
#X connect 3 0 22 0;
#X connect 4 0 26 0;
#X connect 5 0 6 0;
#X connect 7 0 8 0;
#X connect 7 0 8 1;
#X connect 7 1 16 0;
#X connect 9 0 7 0;
#X connect 10 0 9 0;
#X connect 10 0 7 0;
#X connect 10 0 16 1;
#X connect 11 0 6 0;
#X connect 12 0 11 0;
#X connect 13 0 5 0;
#X connect 14 0 12 0;
#X connect 14 1 13 0;
#X connect 15 0 14 0;
#X connect 16 0 9 0;
#X connect 16 0 7 0;
#X connect 17 0 18 0;
#X connect 19 0 23 0;
#X connect 20 0 17 0;
#X connect 21 0 19 0;
#X connect 21 1 20 0;
#X connect 22 0 21 0;
#X connect 23 0 18 0;
#X connect 24 0 25 0;
#X connect 24 0 25 1;
#X connect 24 1 27 2;
#X connect 26 0 28 0;
#X connect 26 0 24 0;
#X connect 26 0 27 3;
#X connect 27 1 28 0;
#X connect 27 1 24 0;
#X connect 28 0 24 0;
#X connect 29 0 50 0;
#X connect 30 0 53 0;
#X connect 31 0 38 0;
#X connect 32 0 42 0;
#X connect 33 0 34 0;
#X connect 35 0 39 0;
#X connect 36 0 33 0;
#X connect 37 0 35 0;
#X connect 37 1 36 0;
#X connect 38 0 37 0;
#X connect 39 0 34 0;
#X connect 40 0 41 0;
#X connect 40 0 41 1;
#X connect 40 1 43 4;
#X connect 42 0 44 0;
#X connect 42 0 40 0;
#X connect 42 0 43 5;
#X connect 43 2 44 0;
#X connect 43 2 40 0;
#X connect 44 0 40 0;
#X connect 45 0 46 0;
#X connect 47 0 55 0;
#X connect 48 0 45 0;
#X connect 49 0 47 0;
#X connect 49 1 48 0;
#X connect 50 0 49 0;
#X connect 51 0 52 0;
#X connect 51 0 52 1;
#X connect 51 1 54 6;
#X connect 53 0 56 0;
#X connect 53 0 51 0;
#X connect 53 0 54 7;
#X connect 54 3 56 0;
#X connect 54 3 51 0;
#X connect 55 0 46 0;
#X connect 56 0 51 0;
#X connect 57 0 18 0;
#X connect 58 0 6 0;
#X connect 59 0 34 0;
#X connect 60 0 46 0;
