#N canvas 130 130 1366 677 12;
#X msg 137 151 1 5;
#X obj 187 152 delay 5;
#X obj 187 186 bng 19 250 50 0 empty empty empty 0 -10 0 12 #ff0400 #000000 #000000;
#X msg 187 222 0.5 100;
#X obj 259 223 delay 100;
#X obj 259 258 bng 19 250 50 0 empty empty empty 0 -10 0 12 #ff0400 #000000 #000000;
#X msg 259 286 0 150;
#X obj 137 313 line;
#X floatatom 137 342 5 0 0 0 - - - 0;
#X obj 141 373 *~, f 4;
#X obj 59 219 noise~;
#X obj 60 258 *~ 0.5;
#X obj 140 403 *~ -1;
#X obj 141 438 dac~;
#X obj 59 291 hip~ 4000;
#X msg 55 186 0.25;
#X obj 137 80 route gridButton1;
#X obj 137 120 bng 19 250 50 0 empty empty empty 0 -10 0 12 #ff0400 #000000 #000000;
#X obj 577 10 inlet OSC;
#X obj 389 82 route gridButton2;
#X obj 720 81 route gridButton3;
#X obj 1086 80 route gridButton4;
#X connect 0 0 7 0;
#X connect 1 0 2 0;
#X connect 2 0 3 0;
#X connect 2 0 4 0;
#X connect 3 0 7 0;
#X connect 4 0 5 0;
#X connect 5 0 6 0;
#X connect 6 0 7 0;
#X connect 7 0 8 0;
#X connect 8 0 9 1;
#X connect 9 0 12 0;
#X connect 10 0 11 0;
#X connect 11 0 14 0;
#X connect 12 0 13 0;
#X connect 12 0 13 1;
#X connect 14 0 9 0;
#X connect 16 0 17 0;
#X connect 17 0 1 0;
#X connect 17 0 0 0;
#X connect 18 0 16 0;
#X connect 18 0 19 0;
#X connect 18 0 20 0;
#X connect 18 0 21 0;
