#N canvas 0 0 1366 677 12;
#X obj 145 96 route slider1;
#X obj 292 95 route slider2;
#X obj 444 99 route slider3;
#X obj 588 99 route slider4;
#X obj 1043 104 route toggle2;
#X obj 735 97 route toggle1;
#X obj 1178 101 route toggle3;
#X obj 144 226 route button1;
#X obj 288 224 route button2;
#X obj 427 223 route button3;
#X obj 667 17 inlet OSC;
#X floatatom 145 134 5 0 0 0 - - - 0;
#X text 170 117 Volume;
#X floatatom 292 131 5 0 0 0 - - - 0;
#X floatatom 444 130 5 0 0 0 - - - 0;
#X floatatom 588 132 5 0 0 0 - - - 0;
#X obj 144 256 bng 19 250 50 0 empty empty empty 0 -10 0 12 #9c00ff #000000 #000000;
#X obj 288 255 bng 19 250 50 0 empty empty empty 0 -10 0 12 #9c00ff #000000 #000000;
#X obj 427 254 bng 19 250 50 0 empty empty empty 0 -10 0 12 #9c00ff #000000 #000000;
#X obj 735 205 hradio 19 1 0 16 empty empty empty 0 -10 0 12 #00faff #000000 #000000 0;
#X obj 735 137 tgl 19 0 empty empty empty 0 -10 0 12 #c6ffc7 #000000 #000000 0 1;
#X obj 735 173 counter;
#X floatatom 781 137 5 0 0 0 - - - 0;
#X msg 144 288 0 2 3 4 5 6 0 1 2 3 4 5 6 0 1 2;
#X obj 144 320 array set \$0-numbers;
#X obj 735 257 array get \$0-numbers;
#X text 619 119 tempo;
#X msg 803 231 1;
#X floatatom 735 283 5 0 0 0 - - - 0;
#N canvas 0 50 450 250 (subpatch) 0;
#X array \$0-numbers 16 float 3;
#A 0 0 2 3 4 5 6 0 1 2 3 4 5 6 0 1 2;
#X coords 0 6 16 0 200 140 1 0 0;
#X restore 941 474 graph;
#X obj 735 313 + 0.5;
#X obj 735 340 int;
#X floatatom 735 370 5 0 0 0 - - - 0;
#X obj 735 398 select 0 1 2 3 4 5 6;
#X obj 735 434 kick;
#X obj 793 434 snare;
#X obj 849 434 hats;
#X obj 792 481 +~;
#X obj 793 511 dac~;
#X obj 288 380 array set \$0-numbers;
#X obj 428 455 array set \$0-numbers;
#X obj 145 162 s volKick;
#X obj 787 369 r volKick;
#X obj 292 160 s volSnare;
#X obj 444 160 s volHats;
#X obj 866 369 r volSnare;
#X obj 952 370 r volHats;
#X msg 288 348 4 10 2 10 5 10 2 2 2 10 4 10 5 0 2 2;
#X msg 428 423 4 2 2 2 5 2 2 2 4 2 2 2 5 2 4 2;
#X text 320 117 Volume;
#X text 471 117 Volume;
#X msg 1043 170 200;
#X obj 1043 292 *~;
#X obj 1043 138 bng 19 250 50 0 empty empty empty 0 -10 0 12 #9c00ff #000000 #000000;
#X obj 1043 326 dac~;
#X obj 1119 164 tgl 19 0 empty empty empty 0 -10 0 12 #c6ffc7 #000000 #000000 0 1;
#X obj 1119 195 sel 0;
#X msg 1119 229 0;
#X obj 1043 262 osc~;
#X msg 1151 229 0.02;
#X obj 1195 289 *~;
#X obj 1195 135 bng 19 250 50 0 empty empty empty 0 -10 0 12 #9c00ff #000000 #000000;
#X obj 1195 323 dac~;
#X obj 1271 161 tgl 19 0 empty empty empty 0 -10 0 12 #c6ffc7 #000000 #000000 0 1;
#X obj 1271 192 sel 0;
#X msg 1271 226 0;
#X obj 1195 259 osc~;
#X msg 1303 227 0.02;
#X msg 1195 167 600;
#X connect 0 0 11 0;
#X connect 1 0 13 0;
#X connect 2 0 14 0;
#X connect 3 0 15 0;
#X connect 4 0 53 0;
#X connect 5 0 20 0;
#X connect 6 0 61 0;
#X connect 7 0 16 0;
#X connect 8 0 17 0;
#X connect 9 0 18 0;
#X connect 10 0 1 0;
#X connect 10 0 0 0;
#X connect 10 0 2 0;
#X connect 10 0 5 0;
#X connect 10 0 4 0;
#X connect 10 0 6 0;
#X connect 10 0 3 0;
#X connect 10 0 7 0;
#X connect 10 0 8 0;
#X connect 10 0 9 0;
#X connect 11 0 41 0;
#X connect 13 0 43 0;
#X connect 14 0 44 0;
#X connect 15 0 21 1;
#X connect 16 0 23 0;
#X connect 17 0 47 0;
#X connect 18 0 48 0;
#X connect 19 0 25 0;
#X connect 20 0 21 0;
#X connect 21 0 19 0;
#X connect 22 0 21 1;
#X connect 23 0 24 0;
#X connect 25 0 28 0;
#X connect 27 0 25 1;
#X connect 28 0 30 0;
#X connect 30 0 31 0;
#X connect 31 0 32 0;
#X connect 32 0 33 0;
#X connect 33 0 34 0;
#X connect 33 1 35 0;
#X connect 33 2 36 0;
#X connect 33 3 34 0;
#X connect 33 3 35 0;
#X connect 33 4 34 0;
#X connect 33 4 36 0;
#X connect 33 5 35 0;
#X connect 33 5 36 0;
#X connect 33 6 34 0;
#X connect 33 6 35 0;
#X connect 33 6 36 0;
#X connect 34 0 37 0;
#X connect 35 0 37 0;
#X connect 36 0 37 0;
#X connect 37 0 38 0;
#X connect 37 0 38 1;
#X connect 42 0 34 1;
#X connect 45 0 35 1;
#X connect 46 0 36 1;
#X connect 47 0 39 0;
#X connect 48 0 40 0;
#X connect 51 0 58 0;
#X connect 52 0 54 0;
#X connect 52 0 54 1;
#X connect 53 0 55 0;
#X connect 53 0 51 0;
#X connect 55 0 56 0;
#X connect 56 0 57 0;
#X connect 56 1 59 0;
#X connect 57 0 52 1;
#X connect 58 0 52 0;
#X connect 59 0 52 1;
#X connect 60 0 62 0;
#X connect 60 0 62 1;
#X connect 61 0 63 0;
#X connect 61 0 68 0;
#X connect 63 0 64 0;
#X connect 64 0 65 0;
#X connect 64 1 67 0;
#X connect 65 0 60 1;
#X connect 66 0 60 0;
#X connect 67 0 60 1;
#X connect 68 0 66 0;
