#N canvas 4 52 1366 677 12;
#X obj 132 85 route slider1;
#X obj 294 79 route slider2;
#X obj 453 80 route slider3;
#X obj 592 81 route slider4;
#X obj 16 339 dac~;
#X obj 16 245 *~, f 4;
#X obj 15 291 clip~ -1 1;
#X obj 17 202 readsf~;
#X floatatom 132 203 5 0 0 0 - - - 0;
#X msg 17 165 open ExtraSounds/electricGuitar.wav;
#X obj 181 126 route toggle2;
#X obj 35 123 route toggle1;
#X obj 336 126 route toggle3;
#X obj 200 358 dac~;
#X obj 200 264 *~, f 4;
#X obj 199 310 clip~ -1 1;
#X obj 201 221 readsf~;
#X floatatom 294 221 5 0 0 0 - - - 0;
#X obj 359 393 dac~;
#X obj 359 299 *~, f 4;
#X obj 358 345 clip~ -1 1;
#X obj 360 256 readsf~;
#X floatatom 456 256 5 0 0 0 - - - 0;
#X msg 201 189 open ExtraSounds/technoSynthesizer.wav;
#X msg 360 221 open ExtraSounds/beatDrum.wav;
#X obj 709 81 route button1;
#X obj 853 79 route button2;
#X obj 990 78 route button3;
#X obj 949 200 bng 19 250 50 0 empty empty empty 0 -10 0 12 #9c00ff #000000 #000000;
#X obj 994 233 + 1;
#X obj 949 234 f;
#X obj 949 306 sel 0 1;
#X obj 949 267 mod 3;
#X obj 411 298 loopSound;
#X obj 245 264 loopSound;
#X text 57 143 Sound1;
#X text 203 142 Sound2;
#X text 362 141 Sound3;
#X text 459 100 VolumeSound3;
#X text 296 97 VolumeSound2;
#X text 138 104 VolumeSound1;
#X floatatom 949 381 5 0 0 0 - - - 0;
#X obj 949 414 osc~;
#X obj 950 450 *~, f 4;
#X obj 950 486 dac~;
#X obj 949 170 metro 200;
#X obj 914 144 tgl 19 0 empty empty empty 0 -10 0 12 #c6ffc7 #000000 #000000 0 1;
#X obj 592 279 dac~;
#X obj 593 213 osc~;
#X obj 592 244 *~, f 4;
#X floatatom 592 134 5 0 0 0 - - - 0;
#X floatatom 652 136 5 0 0 0 - - - 0;
#X text 596 103 VolumeSound4;
#X obj 592 168 *~ 600;
#X msg 995 347 150;
#X msg 972 347 100;
#X msg 949 347 75;
#X obj 889 112 bng 19 250 50 0 empty empty empty 0 -10 0 12 #9c00ff #000000 #000000;
#X obj 1113 199 bng 19 250 50 0 empty empty empty 0 -10 0 12 #9c00ff #000000 #000000;
#X obj 1158 232 + 1;
#X obj 1113 233 f;
#X obj 1113 266 mod 3;
#X floatatom 1113 380 5 0 0 0 - - - 0;
#X obj 1113 413 osc~;
#X obj 1113 482 dac~;
#X obj 1097 141 tgl 19 0 empty empty empty 0 -10 0 12 #c6ffc7 #000000 #000000 0 1;
#X obj 1071 113 bng 19 250 50 0 empty empty empty 0 -10 0 12 #9c00ff #000000 #000000;
#X msg 1113 346 900;
#X msg 1136 346 850;
#X msg 1159 346 800;
#X obj 1113 305 sel 0 1 2;
#X msg 1182 346 750;
#X obj 1114 449 *~;
#X obj 1219 312 sel 0;
#X msg 1219 345 0;
#X obj 1034 312 sel 0;
#X msg 1034 345 0;
#X obj 1113 169 metro 50;
#X msg 1251 345 0.1;
#X obj 739 127 bng 19 250 50 0 empty empty empty 0 -10 0 12 #9c00ff #000000 #000000;
#X obj 786 152 tgl 19 0 empty empty empty 0 -10 0 12 #c6ffc7 #000000 #000000 0 1;
#X msg 1066 345 0.2;
#X obj 684 199 noise~;
#X obj 741 200 osc~;
#X obj 722 241 *~;
#X obj 722 308 dac~;
#X msg 739 166 0.5;
#X obj 722 272 *~;
#X obj 839 175 sel 0;
#X msg 839 208 0;
#X msg 871 208 0.1;
#X obj 593 13 inlet OSC;
#X text 731 101 Sound4;
#X text 879 98 Sound5;
#X text 1017 95 Sound6;
#X obj 64 246 loopSound;
#X connect 0 0 8 0;
#X connect 1 0 17 0;
#X connect 2 0 22 0;
#X connect 3 0 50 0;
#X connect 3 0 51 0;
#X connect 5 0 6 0;
#X connect 6 0 4 0;
#X connect 6 0 4 1;
#X connect 7 0 5 0;
#X connect 7 1 95 0;
#X connect 8 0 5 1;
#X connect 9 0 7 0;
#X connect 10 0 23 0;
#X connect 10 0 16 0;
#X connect 10 0 34 3;
#X connect 11 0 9 0;
#X connect 11 0 7 0;
#X connect 11 0 95 1;
#X connect 12 0 24 0;
#X connect 12 0 21 0;
#X connect 12 0 33 5;
#X connect 14 0 15 0;
#X connect 15 0 13 0;
#X connect 15 0 13 1;
#X connect 16 0 14 0;
#X connect 16 1 34 2;
#X connect 17 0 14 1;
#X connect 19 0 20 0;
#X connect 20 0 18 0;
#X connect 20 0 18 1;
#X connect 21 0 19 0;
#X connect 21 1 33 4;
#X connect 22 0 19 1;
#X connect 23 0 16 0;
#X connect 24 0 21 0;
#X connect 25 0 79 0;
#X connect 26 0 57 0;
#X connect 27 0 66 0;
#X connect 28 0 30 0;
#X connect 29 0 30 1;
#X connect 30 0 29 0;
#X connect 30 0 32 0;
#X connect 31 0 56 0;
#X connect 31 1 55 0;
#X connect 31 2 54 0;
#X connect 32 0 31 0;
#X connect 33 2 24 0;
#X connect 33 2 21 0;
#X connect 34 1 23 0;
#X connect 34 1 16 0;
#X connect 41 0 42 0;
#X connect 42 0 43 0;
#X connect 43 0 44 0;
#X connect 43 0 44 1;
#X connect 45 0 28 0;
#X connect 46 0 45 0;
#X connect 46 0 75 0;
#X connect 48 0 49 0;
#X connect 49 0 47 0;
#X connect 49 0 47 1;
#X connect 50 0 53 0;
#X connect 51 0 49 1;
#X connect 53 0 48 0;
#X connect 54 0 41 0;
#X connect 55 0 41 0;
#X connect 56 0 41 0;
#X connect 57 0 46 0;
#X connect 58 0 60 0;
#X connect 59 0 60 1;
#X connect 60 0 59 0;
#X connect 60 0 61 0;
#X connect 61 0 70 0;
#X connect 62 0 63 0;
#X connect 63 0 72 0;
#X connect 65 0 73 0;
#X connect 65 0 77 0;
#X connect 66 0 65 0;
#X connect 67 0 62 0;
#X connect 68 0 62 0;
#X connect 69 0 62 0;
#X connect 70 0 67 0;
#X connect 70 1 68 0;
#X connect 70 2 69 0;
#X connect 70 3 71 0;
#X connect 72 0 64 0;
#X connect 72 0 64 1;
#X connect 73 0 74 0;
#X connect 73 1 78 0;
#X connect 74 0 72 1;
#X connect 75 0 76 0;
#X connect 75 1 81 0;
#X connect 76 0 43 1;
#X connect 77 0 58 0;
#X connect 78 0 72 1;
#X connect 79 0 80 0;
#X connect 79 0 86 0;
#X connect 80 0 88 0;
#X connect 81 0 43 1;
#X connect 82 0 84 0;
#X connect 83 0 84 1;
#X connect 84 0 87 0;
#X connect 86 0 83 0;
#X connect 87 0 85 0;
#X connect 87 0 85 1;
#X connect 88 0 89 0;
#X connect 88 1 90 0;
#X connect 89 0 87 1;
#X connect 90 0 87 1;
#X connect 91 0 1 0;
#X connect 91 0 0 0;
#X connect 91 0 2 0;
#X connect 91 0 11 0;
#X connect 91 0 10 0;
#X connect 91 0 12 0;
#X connect 91 0 3 0;
#X connect 91 0 25 0;
#X connect 91 0 26 0;
#X connect 91 0 27 0;
#X connect 95 0 9 0;
#X connect 95 0 7 0;
