#N canvas 0 0 1366 677 12;
#X obj 611 42 inlet OSC;
#X obj 298 120 route gridToggle1;
#X obj 485 120 route gridToggle2;
#X obj 747 119 route gridToggle3;
#X obj 957 117 route gridToggle4;
#X msg 344 246 stop;
#X obj 245 229 adc~;
#X obj 298 304 writesf~;
#X obj 500 214 readsf~;
#X obj 501 250 dac~;
#X msg 500 182 open ExtraSounds/MyVoice.wav;
#X obj 485 152 tgl 19 0 empty empty empty 0 -10 0 12 #00ff04 #000000 #000000 0 1;
#X msg 298 272 open ExtraSounds/MyVoice.wav \, start;
#X obj 298 214 bng 19 250 50 0 empty empty empty 0 -10 0 12 #ff0400 #000000 #000000;
#X obj 245 262 *~ 2;
#X obj 344 214 bng 19 250 50 0 empty empty empty 0 -10 0 12 #0400ff #000000 #000000;
#X obj 298 181 sel 1;
#X obj 298 150 tgl 19 0 empty empty empty 0 -10 0 12 #00ff04 #000000 #000000 0 1;
#X obj 570 249 loopSound, f 14;
#X msg 793 245 stop;
#X obj 694 228 adc~;
#X obj 747 303 writesf~;
#X obj 747 213 bng 19 250 50 0 empty empty empty 0 -10 0 12 #ff0400 #000000 #000000;
#X obj 694 261 *~ 2;
#X obj 793 213 bng 19 250 50 0 empty empty empty 0 -10 0 12 #0400ff #000000 #000000;
#X obj 747 180 sel 1;
#X obj 747 149 tgl 19 0 empty empty empty 0 -10 0 12 #00ff04 #000000 #000000 0 1;
#X msg 747 271 open ExtraSounds/MyVoice2.wav \, start;
#X obj 972 209 readsf~;
#X obj 973 245 dac~;
#X obj 957 147 tgl 19 0 empty empty empty 0 -10 0 12 #00ff04 #000000 #000000 0 1;
#X obj 1042 244 loopSound, f 14;
#X msg 972 177 open ExtraSounds/MyVoice2.wav;
#X connect 0 0 1 0;
#X connect 0 0 2 0;
#X connect 0 0 3 0;
#X connect 0 0 4 0;
#X connect 1 0 17 0;
#X connect 2 0 11 0;
#X connect 3 0 26 0;
#X connect 4 0 30 0;
#X connect 5 0 7 0;
#X connect 6 0 14 0;
#X connect 8 0 9 0;
#X connect 8 0 9 1;
#X connect 8 1 18 6;
#X connect 10 0 8 0;
#X connect 11 0 10 0;
#X connect 11 0 8 0;
#X connect 11 0 18 7;
#X connect 12 0 7 0;
#X connect 13 0 12 0;
#X connect 14 0 7 0;
#X connect 15 0 5 0;
#X connect 16 0 13 0;
#X connect 16 1 15 0;
#X connect 17 0 16 0;
#X connect 18 3 10 0;
#X connect 18 3 8 0;
#X connect 19 0 21 0;
#X connect 20 0 23 0;
#X connect 22 0 27 0;
#X connect 23 0 21 0;
#X connect 24 0 19 0;
#X connect 25 0 22 0;
#X connect 25 1 24 0;
#X connect 26 0 25 0;
#X connect 27 0 21 0;
#X connect 28 0 29 0;
#X connect 28 0 29 1;
#X connect 28 1 31 8;
#X connect 30 0 32 0;
#X connect 30 0 28 0;
#X connect 30 0 31 9;
#X connect 31 4 32 0;
#X connect 31 4 28 0;
#X connect 32 0 28 0;
