#N canvas 676 0 681 668 12;
#X obj 79 595 dac~;
#X obj 47 362 osc~;
#X obj 92 401 *~, f 4;
#X obj 317 438 tgl 19 0 empty empty empty 0 -10 0 12 #fcfcfc #000000 #000000 0 1;
#X obj 317 501 bng 19 250 50 0 empty empty empty 0 -10 0 12 #fcfcfc #000000 #000000;
#X obj 316 471 metro 500;
#X obj 319 566 tabwrite~ Sonido;
#N canvas 0 50 450 250 (subpatch) 0;
#X array Sonido 100 float 3;
#A 0 0 0 0 0 0 0 0 0 0 0 0 0 0 0 0 0 0 0 0 0 0 0 0 0 0 0 0 0 0 0 0 0 0 0 0 0 0 0 0 0 0 0 0 0 0 0 0 0 0 0 0 0 0 0 0 0 0 0 0 0 0 0 0 0 0 0 0 0 0 0 0 0 0 0 0 0 0 0 0 0 0 0 0 0 0 0 0 0 0 0 0 0 0 0 0 0 0 0 0 0;
#X coords 0 1 100 -1 200 140 1;
#X restore 418 21 graph;
#X obj 53 79 netreceive -u -b;
#X msg 53 38 listen 8000;
#X obj 53 114 oscparse;
#X obj 53 1 bng 19 250 50 0 empty empty empty 0 -10 0 12 #fcfcfc #000000 #000000;
#X obj 53 151 list trim;
#X floatatom 46 283 5 0 0 0 - - - 0;
#X floatatom 98 283 5 0 0 0 - - - 0;
#X floatatom 147 282 5 0 0 0 - - - 0;
#X floatatom 196 284 5 0 0 0 - - - 0;
#X obj 53 195 route slider1;
#X obj 160 195 route slider2;
#X text 164 217 Frequency;
#X text 62 217 Volume;
#X text 152 36 Conection to port;
#X obj 4 189 print;
#X obj 270 194 route slider3;
#X obj 375 193 route slider4;
#X text 120 595 SoundOutput;
#X text 445 568 VisualizationSound;
#X text 402 473 Time(2 Seconds);
#X obj 46 317 *~ 800;
#X connect 1 0 2 0;
#X connect 2 0 0 0;
#X connect 2 0 6 0;
#X connect 3 0 5 0;
#X connect 4 0 6 0;
#X connect 5 0 4 0;
#X connect 8 0 10 0;
#X connect 9 0 8 0;
#X connect 10 0 12 0;
#X connect 11 0 9 0;
#X connect 12 0 22 0;
#X connect 12 0 17 0;
#X connect 12 0 18 0;
#X connect 12 0 23 0;
#X connect 12 0 24 0;
#X connect 13 0 28 0;
#X connect 14 0 2 1;
#X connect 17 0 13 0;
#X connect 18 0 14 0;
#X connect 23 0 15 0;
#X connect 24 0 16 0;
#X connect 28 0 1 0;
