#N canvas 295 54 450 300 12;
#X obj 120 181 *~ 0.2;
#X obj 103 61 adc~;
#X obj 103 117 *~;
#X obj 136 116 osc~;
#X obj 119 153 *~;
#X obj 120 228 dac~;
#X obj 121 79 r volVoice;
#X obj 136 47 r freqVoice;
#X obj 165 228 outlet~;
#X connect 0 0 5 0;
#X connect 0 0 5 1;
#X connect 0 0 8 0;
#X connect 1 0 2 0;
#X connect 2 0 4 0;
#X connect 3 0 4 1;
#X connect 4 0 0 0;
#X connect 6 0 2 1;
#X connect 7 0 3 0;
